<svg width="809" height="861" viewBox="0 0 809 861" fill="none" xmlns="http://www.w3.org/2000/svg">
<g clip-path="url(#clip0_2590_3379)">
<path d="M404.6 860.3C106 744.4 -95.7996 448.7 48.8004 0.5C28.7004 183.2 30.2004 330.8 78.3004 453.4C138.6 606.3 267 698 404.6 771.1C542.1 698 670.6 606.3 730.9 453.4C779 330.8 780.4 183.2 760.3 0.5C905 448.7 703.2 744.4 404.6 860.3Z" fill="white"/>
<path d="M722.8 26.5002C647.8 15.8002 575.8 8.6002 504.4 5.2002V198.1C562.5 230.5 603.4 291 608.1 362.4C613.5 445.3 566.1 525.7 489.6 560.5V381.3L402.6 331L315.3 381.3V557.6C252.6 526.4 207.7 463.7 202.8 388.6C197.7 308 240.3 235.1 306.8 198.1V5.2002C235.8 8.6002 163.4 15.7002 87.1 26.5002C74.6 116.7 71.4 216.3 82.4 307C94.7 406 127 501.2 197.4 578.2C247.2 632.8 314.6 681.9 404.6 728.4C497.7 680.4 566.9 629.1 616.9 572.3C694.9 484.2 724.8 389.4 732.6 286.4C738.7 203 734.1 107.9 722.8 26.5002Z" fill="white"/>
</g>
<defs>
<clipPath id="clip0_2590_3379">
<rect width="809" height="861" fill="white"/>
</clipPath>
</defs>
</svg>
