<svg width="814" height="576" viewBox="0 0 814 576" fill="none" xmlns="http://www.w3.org/2000/svg">
<path d="M766.097 575.516H21.0476C13.1745 575.516 6.9082 569.25 6.9082 561.377C6.9082 553.504 13.1745 547.237 21.0476 547.237H766.097C773.809 547.237 780.236 553.504 780.236 561.377C780.236 569.25 773.809 575.516 766.097 575.516Z" fill="#545381"/>
<path d="M813.015 370.174C807.07 437.657 772.686 504.498 695.562 560.734H167.263C110.384 481.521 74.7144 413.074 56.8795 355.552C12.0512 211.588 78.0886 136.231 198.113 131.25C366.179 124.341 387.227 -7.09075 536.333 0.300294C644.789 5.76324 829.083 190.379 813.015 370.174Z" fill="#232434"/>
<path d="M683.831 184.916C668.246 205.322 643.662 214.802 619.883 212.07C609.439 210.945 598.995 215.123 592.728 223.478L440.409 422.072L406.346 396.043L558.505 197.288C564.932 188.933 566.378 177.846 562.522 168.045C553.685 145.872 556.416 119.682 572.001 99.2765C587.587 79.0315 612.01 69.3909 635.789 72.1224L600.602 118.075C592.729 128.198 590.961 141.855 595.942 153.745L596.103 154.067C601.084 165.957 612.009 174.312 624.703 175.918H625.024C637.878 177.686 650.571 172.384 658.284 162.261L693.472 116.308C702.148 138.481 699.417 164.671 683.831 184.916Z" fill="white"/>
<g opacity="0.5">
<path d="M683.831 184.915C668.246 205.321 643.662 214.801 619.883 212.069C609.439 210.945 598.995 215.122 592.728 223.477L440.409 422.071L406.346 396.042L406.988 395.239L430.929 413.556L583.088 214.961C589.515 206.606 599.798 202.429 610.242 203.554C634.022 206.285 658.605 196.805 674.191 176.4C686.241 160.814 690.58 141.533 688.009 123.377L693.472 116.307C702.148 138.48 699.417 164.67 683.831 184.915Z" fill="#E6F3FF"/>
</g>
<path d="M695.562 531.652H669.854V452.279H695.562V531.652Z" fill="#545381"/>
<path d="M669.854 274.572V543.221C669.854 552.861 661.981 560.734 652.34 560.734H270.255C260.454 560.734 252.581 552.861 252.581 543.221V274.572C252.581 264.771 260.454 256.898 270.255 256.898H652.34C661.981 256.898 669.854 264.771 669.854 274.572Z" fill="#3A3768"/>
<path d="M488.612 407.129C488.612 465.454 441.374 512.692 383.209 512.692C325.045 512.692 277.807 465.454 277.807 407.129C277.807 348.964 325.045 301.726 383.209 301.726C441.374 301.726 488.612 348.964 488.612 407.129Z" fill="#4B59F7"/>
<path d="M400.562 393.472C398.848 394.329 397.188 395.078 395.581 395.721C395.581 395.721 369.713 422.232 377.907 395.721C386.102 369.21 361.84 356.034 349.307 339.967C339.345 326.952 368.267 312.813 396.706 317.633C403.776 318.758 410.685 321.007 417.112 324.703C447.479 342.538 427.074 379.814 400.562 393.472Z" fill="white"/>
<path d="M478.007 413.396C477.525 422.715 475.115 432.516 469.973 441.032C451.174 473.328 410.202 448.262 398.955 419.502C398.955 419.502 396.384 416.931 393.653 413.717C387.547 406.648 380.799 396.204 398.955 401.827C425.466 410.022 438.802 385.76 454.87 373.388C466.599 364.23 479.453 387.527 478.007 413.396Z" fill="white"/>
<path d="M349.307 489.716C317.172 470.756 342.237 429.945 370.837 418.697C370.837 418.697 372.283 417.251 374.372 415.323C381.12 409.218 394.939 398.292 388.512 418.697C380.317 445.209 404.579 458.384 417.112 474.452C429.644 490.519 381.602 508.515 349.307 489.716Z" fill="white"/>
<path d="M367.464 412.592C340.952 404.236 327.616 428.659 311.549 441.031C296.767 452.6 280.057 412.11 292.911 380.617C293.875 378.046 295.053 375.583 296.445 373.226C315.405 341.091 356.217 366.157 367.464 394.917C367.464 394.917 393.975 420.786 367.464 412.592Z" fill="white"/>
<g style="mix-blend-mode:color-burn">
<path d="M349.307 489.716C317.172 470.757 342.237 429.945 370.837 418.698C370.837 418.698 372.283 417.252 374.372 415.324L382.406 418.537L387.226 435.087C353.002 441.353 333.882 454.85 349.307 489.716Z" fill="#D6D5D5"/>
</g>
<g style="mix-blend-mode:color-burn">
<path d="M367.463 394.917C345.612 376.761 312.352 373.066 292.91 380.617C293.874 378.046 295.053 375.583 296.445 373.226C315.405 341.091 356.216 366.157 367.463 394.917Z" fill="#D6D5D5"/>
</g>
<g style="mix-blend-mode:color-burn">
<path d="M400.563 393.471C417.916 367.924 402.009 332.254 396.707 317.633C403.777 318.758 410.686 321.007 417.113 324.702C447.48 342.537 427.075 379.814 400.563 393.471Z" fill="#D6D5D5"/>
</g>
<g style="mix-blend-mode:color-burn">
<path d="M478.008 413.395C477.526 422.714 475.115 432.515 469.974 441.031C451.175 473.327 410.203 448.261 398.956 419.5C398.956 419.5 396.385 416.93 393.653 413.716H395.421C410.845 436.853 455.674 408.735 478.008 413.395Z" fill="#D6D5D5"/>
</g>
<path d="M402.17 410.504C402.17 420.947 393.654 429.302 383.21 429.302C372.927 429.302 364.411 420.947 364.411 410.504C364.411 400.06 372.927 391.705 383.21 391.705C393.654 391.705 402.17 400.06 402.17 410.504Z" fill="#CFF6FF"/>
<path d="M277.807 277.786C277.807 280.517 275.557 282.767 272.826 282.767C269.934 282.767 267.684 280.517 267.684 277.786C267.684 274.894 269.934 272.644 272.826 272.644C275.557 272.644 277.807 274.894 277.807 277.786Z" fill="#4B59F7"/>
<path d="M655.071 277.786C655.071 280.517 652.821 282.767 650.09 282.767C647.198 282.767 644.948 280.517 644.948 277.786C644.948 274.894 647.198 272.644 650.09 272.644C652.821 272.644 655.071 274.894 655.071 277.786Z" fill="#4B59F7"/>
<path d="M277.807 536.634C277.807 539.526 275.557 541.775 272.826 541.775C269.934 541.775 267.684 539.526 267.684 536.634C267.684 533.902 269.934 531.653 272.826 531.653C275.557 531.653 277.807 533.902 277.807 536.634Z" fill="#0AACED"/>
<path d="M655.071 536.634C655.071 539.526 652.821 541.775 650.09 541.775C647.198 541.775 644.948 539.526 644.948 536.634C644.948 533.902 647.198 531.653 650.09 531.653C652.821 531.653 655.071 533.902 655.071 536.634Z" fill="#4B59F7"/>
<path d="M267.684 291.121H514.481" stroke="#3A3768" stroke-width="1.1" stroke-miterlimit="10"/>
<path d="M267.684 325.828H514.481" stroke="#3A3768" stroke-width="1.1" stroke-miterlimit="10"/>
<path d="M267.684 360.694H514.481" stroke="#3A3768" stroke-width="1.1" stroke-miterlimit="10"/>
<path d="M267.684 395.4H514.481" stroke="#3A3768" stroke-width="1.1" stroke-miterlimit="10"/>
<path d="M267.684 430.267H514.481" stroke="#3A3768" stroke-width="1.1" stroke-miterlimit="10"/>
<path d="M267.684 464.972H514.481" stroke="#3A3768" stroke-width="1.1" stroke-miterlimit="10"/>
<path d="M267.684 499.838H514.481" stroke="#3A3768" stroke-width="1.1" stroke-miterlimit="10"/>
<path d="M267.684 534.544H514.481" stroke="#3A3768" stroke-width="1.1" stroke-miterlimit="10"/>
<path d="M512.874 289.516V536.312" stroke="#3A3768" stroke-width="1.1" stroke-miterlimit="10"/>
<path d="M478.007 289.516V536.312" stroke="#3A3768" stroke-width="1.1" stroke-miterlimit="10"/>
<path d="M443.302 289.516V536.312" stroke="#3A3768" stroke-width="1.1" stroke-miterlimit="10"/>
<path d="M408.436 289.516V536.312" stroke="#3A3768" stroke-width="1.1" stroke-miterlimit="10"/>
<path d="M373.73 289.516V536.312" stroke="#3A3768" stroke-width="1.1" stroke-miterlimit="10"/>
<path d="M338.863 289.516V536.312" stroke="#3A3768" stroke-width="1.1" stroke-miterlimit="10"/>
<path d="M304.157 289.516V536.312" stroke="#3A3768" stroke-width="1.1" stroke-miterlimit="10"/>
<path d="M269.292 289.516V536.312" stroke="#3A3768" stroke-width="1.1" stroke-miterlimit="10"/>
<path d="M615.868 534.043H545.01C540.466 534.043 536.833 530.411 536.833 525.867V299.798C536.833 295.253 540.466 291.621 545.01 291.621H615.868C620.424 291.621 624.205 295.265 624.205 299.798V525.867C624.205 530.399 620.424 534.043 615.868 534.043Z" fill="#3A3768" stroke="black"/>
<path d="M602.049 456.135H558.988C555.292 456.135 552.4 453.243 552.4 449.708C552.4 446.012 555.292 443.12 558.988 443.12H602.049C605.584 443.12 608.637 446.012 608.637 449.708C608.637 453.243 605.584 456.135 602.049 456.135Z" fill="#656691" fill-opacity="0.6"/>
<path d="M602.049 486.502H558.988C555.292 486.502 552.4 483.449 552.4 479.914C552.4 476.219 555.292 473.327 558.988 473.327H602.049C605.584 473.327 608.637 476.219 608.637 479.914C608.637 483.449 605.584 486.502 602.049 486.502Z" fill="#656691" fill-opacity="0.6"/>
<path d="M602.049 516.709H558.988C555.292 516.709 552.4 513.817 552.4 510.122C552.4 506.587 555.292 503.534 558.988 503.534H602.049C605.584 503.534 608.637 506.587 608.637 510.122C608.637 513.817 605.584 516.709 602.049 516.709Z" fill="#656691" fill-opacity="0.6"/>
<path d="M683.511 381.099H669.854V301.726H683.511C688.171 301.726 691.867 305.582 691.867 310.242V372.744C691.867 377.404 688.171 381.099 683.511 381.099Z" fill="#545381"/>
<path d="M695.562 504.015H705.684C712.432 504.015 717.895 498.713 717.895 491.965C717.895 485.377 712.432 479.914 705.684 479.914H695.562V504.015Z" fill="#FCFEFF"/>
<path d="M503.073 256.255H352.36V177.203H503.073V256.255Z" fill="#4B59F7"/>
<path d="M464.672 256.255H313.959V177.203H464.672V256.255Z" fill="#4B59F7"/>
<g opacity="0.3">
<path d="M464.672 214.158C461.297 242.437 352.36 256.255 352.36 256.255H464.672V214.158Z" fill="#3A3768"/>
</g>
<path opacity="0.2" d="M313.959 203.553H503.073" stroke="white" stroke-width="1.1" stroke-miterlimit="10"/>
<path d="M362.804 213.998C360.555 213.998 358.626 212.07 358.626 209.82V197.448C358.626 195.199 360.555 193.271 362.804 193.271C365.053 193.271 366.981 195.199 366.981 197.448V209.82C366.981 212.07 365.053 213.998 362.804 213.998Z" fill="white"/>
<path d="M412.614 213.998C410.364 213.998 408.436 212.07 408.436 209.82V197.448C408.436 195.199 410.364 193.271 412.614 193.271C415.024 193.271 416.791 195.199 416.791 197.448V209.82C416.791 212.07 415.024 213.998 412.614 213.998Z" fill="white"/>
<path d="M371.64 238.42H353.966V229.583H371.64V238.42Z" fill="black"/>
<path d="M421.45 238.42H403.775V229.583H421.45V238.42Z" fill="black"/>
<g style="mix-blend-mode:color-burn" opacity="0.2">
<path d="M364.411 560.734H270.255C260.454 560.734 252.581 552.861 252.581 543.22V408.896C313.798 408.896 319.261 446.012 313.637 486.502C308.014 526.831 346.094 526.992 364.411 538.239C382.888 549.486 364.411 560.734 364.411 560.734Z" fill="#6D3046"/>
</g>
<path d="M92.2273 533.258C78.5699 534.543 49.6484 547.236 49.6484 547.236V557.841H95.6015L92.2273 533.258Z" fill="#F9AC94"/>
<path d="M256.598 498.552C257.884 512.049 270.577 541.131 270.577 541.131H281.181V495.018L256.598 498.552Z" fill="#F9AC94"/>
<path d="M53.3441 557.841H1.28538C0.64268 557.841 0.160675 557.359 0 556.877C0 556.395 0.160616 555.913 0.64264 555.752C4.33816 553.503 9.96184 549.647 15.2641 544.344C24.1012 535.507 28.7608 537.114 35.8305 544.344C38.0799 546.755 40.8114 547.719 43.3822 547.879C45.953 544.023 49.1665 542.256 51.4159 544.023C51.8444 544.452 52.2728 545.094 52.7013 545.951C53.1833 545.791 53.3441 557.841 53.3441 557.841Z" fill="black"/>
<path d="M314.281 560.734H261.419C261.419 560.734 261.419 551.254 265.114 544.345C258.366 538.561 264.311 533.741 264.311 533.741H284.235V541.132C284.235 541.132 292.268 549.005 305.122 549.005C318.137 549.005 314.281 560.734 314.281 560.734Z" fill="black"/>
<path d="M147.017 221.068C141.394 233.44 154.087 245.008 153.926 245.972C153.766 246.936 164.531 232.315 164.531 232.315L163.406 225.727L152.641 217.533L147.017 221.068Z" fill="#231D1F"/>
<path d="M199.077 213.034C202.933 220.425 199.72 227.495 195.864 227.816C192.007 228.137 185.902 213.034 185.902 213.034L198.434 211.749L199.077 213.034Z" fill="#231D1F"/>
<path d="M197.308 229.744C199.718 235.046 206.145 238.902 197.308 241.955C188.471 245.008 194.576 234.082 194.576 234.082L197.308 229.744Z" fill="#E27C6A"/>
<path d="M170.637 251.114L167.424 266.7L151.195 259.309L156.658 232.476L174.172 238.581L170.637 251.114Z" fill="#EA907A"/>
<path d="M194.737 213.998C199.397 235.368 197.63 253.363 192.809 255.934C187.989 258.505 163.566 261.397 158.425 240.349L158.907 238.099L157.943 217.372L181.08 215.283L194.737 213.998Z" fill="#F9AC94"/>
<path d="M189.757 213.034C183.812 227.334 185.258 221.71 177.546 226.691C169.994 231.672 171.44 225.566 167.102 229.744C162.763 233.921 156.497 217.051 156.497 217.051L179.152 213.034H189.757Z" fill="#231D1F"/>
<path d="M200.04 211.106L179.313 215.123L147.017 221.068C147.017 221.068 137.698 196.645 155.854 189.093C157.14 188.558 158.479 188.129 159.871 187.808C183.169 182.345 194.256 191.343 200.04 211.106Z" fill="#4B59F7"/>
<path d="M185.901 213.034C185.901 213.034 183.33 213.837 179.313 215.123L147.017 221.068C147.017 221.068 137.698 196.645 155.854 189.094C152.801 210.945 185.901 213.034 185.901 213.034Z" fill="#4B59F7"/>
<path d="M145.893 221.067L213.859 211.909V207.249L144.608 217.211L145.893 221.067Z" fill="#3A3768"/>
<path d="M163.245 238.742C151.516 232.957 146.214 225.727 149.749 220.264C153.283 214.801 159.71 215.283 162.924 224.442C166.137 233.761 163.245 238.742 163.245 238.742Z" fill="#F9AC94"/>
<path d="M192.168 226.692C192.168 228.62 191.686 230.226 191.043 230.226C190.4 230.226 189.758 228.62 189.758 226.692C189.758 224.763 190.24 223.157 190.883 223.157C191.525 223.157 192.007 224.763 192.168 226.692Z" fill="#201E21"/>
<path d="M185.9 244.044C182.205 243.08 177.867 236.492 177.867 236.492C177.867 236.492 175.778 247.418 182.205 249.025L185.9 244.044Z" fill="white"/>
<g style="mix-blend-mode:overlay" opacity="0.4">
<path d="M160.032 225.245C158.425 219.622 154.89 221.871 154.729 224.281C154.569 226.691 160.192 232.315 160.192 232.315L160.032 225.245Z" fill="#201E21"/>
</g>
<path d="M187.669 353.785V353.946C187.669 356.998 187.508 358.926 187.508 358.926C187.508 358.926 185.098 363.265 182.045 368.567C182.045 368.781 181.992 368.942 181.885 369.049C176.582 378.368 169.352 391.061 168.549 391.383C167.424 392.025 134.003 396.364 134.003 396.364C134.003 396.364 134.807 435.568 126.612 368.085C126.612 367.549 126.559 366.96 126.452 366.317C125.006 354.106 124.524 343.18 124.684 333.379C125.166 289.836 138.02 269.431 138.02 269.431L142.037 259.308C142.037 259.308 173.047 264.61 174.172 263.807V277.304C174.172 277.304 179.314 296.424 184.134 307.189C184.937 309.278 185.741 312.652 186.223 316.508C186.223 316.83 186.276 317.097 186.383 317.312C187.83 329.041 187.83 345.59 187.669 353.785Z" fill="#EFEFEF"/>
<path d="M189.436 413.716C189.436 413.716 129.183 415.966 119.703 413.716C110.223 411.628 120.025 399.577 119.703 392.347C119.382 385.116 118.418 348.161 124.684 333.379C130.629 352.339 148.464 361.979 164.371 357.319C164.478 357.319 164.639 357.266 164.853 357.159C173.208 354.588 180.92 348 185.901 336.753L187.669 353.785V353.945V354.427C187.669 354.427 187.829 363.907 188.472 374.351V375.315C189.115 387.044 190.079 399.898 192.007 402.951C195.381 408.735 189.436 413.716 189.436 413.716Z" fill="#656691"/>
<g style="mix-blend-mode:color-burn" opacity="0.2">
<path d="M188.472 374.351C187.025 372.745 185.258 370.977 182.527 369.049C182.419 368.942 182.259 368.781 182.045 368.567C180.116 367.175 177.76 365.782 174.975 364.39C171.761 362.783 168.387 360.533 165.013 357.32C165.013 357.32 164.959 357.266 164.852 357.159C153.123 346.233 141.394 325.667 139.787 295.942L158.586 289.354L186.222 316.509C186.222 316.83 186.276 317.098 186.383 317.312C187.829 329.041 187.829 345.591 187.668 353.785V353.946V354.428C187.668 354.428 187.829 363.908 188.472 374.351Z" fill="#B81C4C"/>
</g>
<path d="M322.635 321.971C323.439 321.811 323.921 321.811 324.081 322.293C325.045 324.863 321.51 333.379 303.194 336.271C297.731 337.075 293.392 338.36 289.054 340.127H288.893C287.18 340.77 285.466 341.466 283.752 342.216C283.538 342.323 283.27 342.43 282.948 342.538C274.433 346.233 264.471 351.053 246.797 356.195C215.626 365.193 209.52 376.601 177.706 348.483C176.742 347.626 175.832 346.822 174.975 346.072C153.445 325.506 182.848 330.326 193.453 332.415C195.702 332.897 197.148 333.379 197.148 333.379L205.985 339.324C205.985 339.324 241.655 327.595 270.576 326.47C299.659 325.185 299.659 309.599 305.122 306.707C310.585 303.815 307.853 310.724 305.122 314.741C302.551 318.918 319.1 302.208 321.832 306.064C322.957 307.35 322.796 308.635 321.992 309.76C324.242 308.153 326.491 306.707 327.616 307.511C328.901 308.475 325.045 313.295 322.475 316.348C323.439 315.544 324.403 315.223 325.367 316.026C326.331 316.99 324.885 319.561 322.635 321.971Z" fill="#F9AC94"/>
<g style="mix-blend-mode:color-burn" opacity="0.2">
<path d="M282.949 342.538C274.433 346.233 264.471 351.053 246.797 356.195C215.626 365.193 209.52 376.601 177.707 348.483C176.743 347.626 175.832 346.822 174.975 346.072C174.493 344.787 174.172 343.984 174.172 343.984L185.901 336.753L193.453 332.415C195.702 332.897 197.148 333.379 197.148 333.379L205.986 339.324C195.863 352.981 197.148 358.444 213.859 360.051C230.408 361.658 250.492 353.142 262.543 349.768C269.613 347.679 277.646 344.626 282.949 342.538Z" fill="#B81C4C"/>
</g>
<path d="M143.001 274.411C143.001 274.411 155.855 259.308 171.762 281.642C187.508 303.976 201.808 334.664 201.808 334.664L177.546 356.195C177.546 356.195 121.47 297.388 143.001 274.411Z" fill="#4B59F7"/>
<path d="M120.989 411.949C116.008 418.215 120.989 428.338 120.989 428.338H190.079C190.079 428.338 197.952 416.287 189.437 413.716C180.921 411.306 120.989 411.949 120.989 411.949Z" fill="#231D1F"/>
<path d="M171.601 533.901C171.279 550.129 168.709 559.127 153.766 560.573C151.516 560.787 148.999 560.841 146.214 560.734C124.523 559.769 77.124 558.805 77.124 558.805V530.366C95.441 527.313 130.147 526.028 130.147 526.028C130.147 526.028 120.024 493.893 120.988 455.974C121.149 449.707 122.274 444.566 124.202 440.709C133.521 420.786 160.514 427.052 170.637 432.033L171.601 443.28C171.601 443.28 171.601 446.654 171.761 452.117C171.761 459.348 171.761 469.952 171.761 481.199C171.922 501.766 171.922 524.582 171.601 533.901Z" fill="#514E7F"/>
<g style="mix-blend-mode:color-burn" opacity="0.2">
<path d="M153.767 560.573C151.517 560.788 149 560.841 146.215 560.734C124.524 559.77 77.125 558.806 77.125 558.806V530.367C95.4419 527.314 130.148 526.028 130.148 526.028C130.148 526.028 120.025 493.893 120.989 455.974C121.15 449.708 122.275 444.566 124.203 440.71L134.165 437.657L171.762 452.118C171.762 459.348 171.762 469.953 171.762 481.2C149.75 490.519 140.27 485.699 133.683 499.838C127.095 514.46 131.433 526.189 139.788 530.367C147.983 534.705 106.046 529.885 95.6026 541.292C88.2116 549.648 129.666 557.039 153.767 560.573Z" fill="#B81C4C"/>
</g>
<path d="M288.089 514.298H253.384C250.17 496.142 252.741 466.417 252.741 466.417C252.741 466.417 181.883 476.54 143.964 475.576C106.206 474.612 114.079 437.978 120.024 425.927L138.662 425.606L169.993 424.963C169.993 424.963 242.136 424.481 260.775 424.963C279.252 425.445 288.411 428.659 287.447 450.35C286.483 472.041 288.089 514.298 288.089 514.298Z" fill="#656691"/>
<g style="mix-blend-mode:color-burn" opacity="0.2">
<path d="M281.341 514.3H253.384C250.17 496.144 252.741 466.419 252.741 466.419C252.741 466.419 181.883 476.541 143.964 475.577C106.206 474.613 114.079 437.979 120.024 425.929L138.662 425.607L151.194 428.821L167.262 437.658C165.495 458.706 165.655 469.311 201.807 462.563C237.959 455.814 254.83 461.92 265.916 456.457C277.003 450.994 266.077 467.704 261.417 483.129C256.919 497.429 268.969 513.175 281.341 514.3Z" fill="#B81C4C"/>
</g>
<path d="M167.263 412.11V442.156C167.263 443.548 167.102 444.887 166.781 446.173C165.013 452.118 159.55 456.456 152.963 456.456H133.039C125.166 456.456 118.739 450.029 118.739 442.156V412.11C118.739 404.237 125.166 397.81 133.039 397.81H152.963C160.836 397.81 167.263 404.237 167.263 412.11Z" fill="black"/>
<path d="M140.59 424C140.59 425.446 139.465 426.571 138.019 426.571C136.573 426.571 135.448 425.446 135.448 424C135.448 422.554 136.573 421.429 138.019 421.429C139.465 421.429 140.59 422.554 140.59 424Z" fill="white"/>
<g style="mix-blend-mode:color-burn" opacity="0.2">
<path d="M166.781 446.173C165.013 452.118 159.55 456.456 152.963 456.456H133.039C125.166 456.456 118.739 450.029 118.739 442.156V412.11C118.739 404.237 125.166 397.81 133.039 397.81H138.02C125.808 401.505 126.291 429.141 129.343 430.105C132.236 431.069 152.641 430.105 152.641 430.105C152.641 430.105 146.857 433.319 137.056 434.604C127.415 436.05 127.415 450.832 143.001 450.832C153.766 450.832 162.282 447.94 166.781 446.173Z" fill="#B81C4C"/>
</g>
<path d="M120.667 407.772C119.06 428.499 121.149 430.266 134.325 430.266C147.339 430.266 161.157 433.159 161.157 425.607C161.157 418.055 158.908 406.165 166.138 406.326" stroke="white" stroke-width="1.1" stroke-miterlimit="10" stroke-linecap="round"/>
<g style="mix-blend-mode:color-burn" opacity="0.2">
<path d="M51.4159 544.023C47.3991 543.862 43.7036 552.057 43.7036 552.057C43.7036 552.057 32.135 543.862 23.6192 544.023C18.1563 544.184 14.3 552.218 12.2112 557.841H1.76738L0 556.877C0 556.395 0.160616 555.913 0.64264 555.752C4.33816 553.503 9.96184 549.647 15.2641 544.344C24.1012 535.507 28.7608 537.114 35.8305 544.344C38.0799 546.755 40.8114 547.719 43.3822 547.879C45.953 544.023 49.1665 542.256 51.4159 544.023Z" fill="black"/>
</g>
<g style="mix-blend-mode:color-burn" opacity="0.2">
<path d="M261.419 560.734C261.419 560.734 261.419 551.254 265.114 544.345C258.366 538.561 264.311 533.741 264.311 533.741H274.755C268.649 539.525 275.237 544.827 275.237 544.827C275.237 544.827 245.673 558.324 304.801 560.734H261.419Z" fill="#B81C4C"/>
</g>
</svg>
