<svg width="855" height="594" viewBox="0 0 855 594" fill="none" xmlns="http://www.w3.org/2000/svg">
<path d="M294.155 591.833L232.843 181.471H143.442L204.611 591.833" stroke="#4B59F7" stroke-width="3.1" stroke-miterlimit="10"/>
<path d="M238.119 216.404H148.575" stroke="#4B59F7" stroke-width="3.1" stroke-miterlimit="10"/>
<path d="M243.252 251.479H153.85" stroke="#4B59F7" stroke-width="3.1" stroke-miterlimit="10"/>
<path d="M248.67 287.27H160.98" stroke="#4B59F7" stroke-width="3.1" stroke-miterlimit="10"/>
<path d="M253.946 323.202H164.544" stroke="#4B59F7" stroke-width="3.1" stroke-miterlimit="10"/>
<path d="M259.364 358.99H169.963" stroke="#4B59F7" stroke-width="3.1" stroke-miterlimit="10"/>
<path d="M263.784 394.922H175.238" stroke="#4B59F7" stroke-width="3.1" stroke-miterlimit="10"/>
<path d="M270.058 430.711H180.656" stroke="#4B59F7" stroke-width="3.1" stroke-miterlimit="10"/>
<path d="M275.334 466.643H185.932" stroke="#4B59F7" stroke-width="3.1" stroke-miterlimit="10"/>
<path d="M280.752 502.432H191.35" stroke="#4B59F7" stroke-width="3.1" stroke-miterlimit="10"/>
<path d="M286.17 538.363H196.626" stroke="#4B59F7" stroke-width="3.1" stroke-miterlimit="10"/>
<path d="M31.369 591.833L92.681 181.471H182.083L120.77 591.833" stroke="#3A3768" stroke-width="3.1" stroke-miterlimit="10"/>
<path d="M87.4054 216.404H176.807" stroke="#3A3768" stroke-width="3.1" stroke-miterlimit="10"/>
<path d="M82.1295 251.479H171.674" stroke="#3A3768" stroke-width="3.1" stroke-miterlimit="10"/>
<path d="M76.854 287.27H164.544" stroke="#3A3768" stroke-width="3.1" stroke-miterlimit="10"/>
<path d="M71.4357 323.202H160.98" stroke="#3A3768" stroke-width="3.1" stroke-miterlimit="10"/>
<path d="M66.16 358.99H155.562" stroke="#3A3768" stroke-width="3.1" stroke-miterlimit="10"/>
<path d="M61.5972 394.922H150.143" stroke="#3A3768" stroke-width="3.1" stroke-miterlimit="10"/>
<path d="M55.4661 430.711H144.868" stroke="#3A3768" stroke-width="3.1" stroke-miterlimit="10"/>
<path d="M50.0477 466.643H139.449" stroke="#3A3768" stroke-width="3.1" stroke-miterlimit="10"/>
<path d="M44.772 502.432H134.173" stroke="#3A3768" stroke-width="3.1" stroke-miterlimit="10"/>
<path d="M39.3538 538.363H128.755" stroke="#3A3768" stroke-width="3.1" stroke-miterlimit="10"/>
<path d="M90.9699 109.607H326.237C334.079 109.607 340.496 103.19 340.496 95.3479V34.6063C340.496 26.764 334.079 20.3477 326.237 20.3477H90.9699C83.1277 20.3477 76.7113 26.764 76.7113 34.6063V95.3479C76.7113 103.19 83.1277 109.607 90.9699 109.607Z" fill="#3A3768"/>
<path d="M115.923 109.606H301.142V96.0605H115.923V109.606Z" fill="#4B59F7"/>
<path d="M121.056 113.028H296.009V103.902H121.056V113.028Z" fill="#3A3768"/>
<path d="M106.227 20.3477V79.9487H310.98V20.3477" stroke="#4B59F7" stroke-width="1.2" stroke-miterlimit="10"/>
<path d="M124.763 32.61H292.444V30.0435H124.763V32.61Z" fill="#4B59F7"/>
<path d="M124.763 37.8864H292.444V35.3198H124.763V37.8864Z" fill="#4B59F7"/>
<path d="M124.763 44.0167H292.444V41.4502H124.763V44.0167Z" fill="#4B59F7"/>
<path d="M296.009 70.2531C296.009 72.2493 297.577 73.8178 299.574 73.8178C301.427 73.8178 303.138 72.2493 303.138 70.2531C303.138 68.3995 301.427 66.8311 299.574 66.8311C297.577 66.8311 296.009 68.3995 296.009 70.2531Z" fill="#D4333B"/>
<path d="M109.649 56.2796L40.3518 76.2417C40.3518 76.2417 28.232 84.6543 40.3518 98.6277L67.8709 116.736L75.428 101.194L67.8709 93.2094L109.649 86.5079C109.649 86.5079 120.2 84.6543 121.626 72.1067C122.767 62.9812 114.211 54.9964 109.649 56.2796Z" fill="#4B59F7"/>
<path d="M41.0648 99.054L67.871 93.208L75.4281 101.193L67.871 116.735L41.0648 99.054Z" fill="#4B59F7"/>
<path d="M123.052 43.0192V21.6313C123.052 12.2206 130.609 4.521 140.162 4.521C149.573 4.521 157.273 12.2206 157.273 21.6313V27.1922L163.119 38.3139H157.273V42.8767C157.273 50.4337 151.141 56.4223 143.727 56.4223H138.736L130.751 70.2532L114.782 57.1353L123.052 43.0192Z" fill="white"/>
<path d="M52.7569 370.54C52.7569 370.54 49.3348 311.509 67.5858 284.845C77.4243 270.587 55.1808 217.402 64.0212 158.229L122.481 174.341C120.628 192.165 108.08 309.37 70.7227 364.979C68.0136 369.114 65.8748 373.819 64.4489 378.81L64.3063 379.38L72.4338 384.085L82.2722 385.511C84.6962 385.796 86.5498 387.935 86.5498 390.359V392.926H52.1865L52.7569 370.54Z" fill="#514E7F"/>
<path d="M146.008 19.4922C146.008 19.4922 161.55 17.9237 163.689 8.79823C165.97 -0.32728 154.278 -2.32348 150.143 2.66703C150.143 2.66703 132.463 -3.46417 122.624 7.22979C112.786 17.9237 117.776 31.8972 121.484 37.3155C121.484 37.3155 117.349 41.8782 122.482 43.8744C127.615 46.0132 135.6 36.4599 134.744 31.612C134.744 31.612 147.577 31.4694 146.008 19.4922Z" fill="black"/>
<path d="M129.326 33.3232C129.896 37.0304 132.605 39.8821 135.314 39.4544C138.023 39.0266 139.734 35.6045 139.164 31.7547C138.594 27.9049 135.885 25.1957 133.175 25.6235C130.466 26.0513 128.755 29.4733 129.326 33.3232Z" fill="white"/>
<path d="M138.736 56.421C138.736 56.421 132.32 53.5692 131.322 46.8677L130.751 70.2518L138.736 56.421Z" fill="#3A3768"/>
<path d="M219.012 117.877C219.012 117.877 224.858 106.327 230.847 106.327C230.847 106.327 232.415 107.325 227.14 114.027C227.14 114.027 234.697 109.464 242.254 110.177C242.254 110.177 248.1 123.01 228.851 128.428L221.294 130.282L219.012 117.877Z" fill="white"/>
<path d="M106.654 56.8502C109.364 55.2817 112.786 55.5669 115.352 57.5631L139.021 77.0974C140.305 78.0955 141.445 79.5214 142.301 81.0898L164.544 122.297L219.44 117.022L223.718 130.139L158.271 148.248C151.284 150.244 143.869 147.107 140.305 140.691L130.324 122.012C126.474 140.833 123.337 162.221 124.62 177.763L64.0212 161.794C64.0212 161.794 56.0363 87.6488 106.654 56.8502Z" fill="#4B59F7"/>
<path d="M76.4261 90.5003C76.9014 89.4546 77.4242 88.4565 77.9945 87.506C78.0896 87.2208 78.2322 86.9831 78.4223 86.793C78.6124 86.4128 78.8025 86.0326 78.9926 85.6523C79.1827 85.3672 79.3253 85.1295 79.4204 84.9394C79.7056 84.5592 79.9432 84.1789 80.1333 83.7987C85.6942 74.6732 92.9661 66.4032 102.519 59.5591C102.377 59.8443 89.4014 75.2436 83.698 84.9394L102.947 90.6429L132.605 71.8215L137.453 75.8139L111.075 95.776L128.755 128.856L128.898 129.426C125.761 146.251 123.479 164.217 124.62 177.763L64.0211 161.793C64.0211 161.793 59.8861 123.438 76.4261 90.5003Z" fill="#656691"/>
<path d="M120.2 102.334L130.324 122.011C127.472 135.842 125.048 150.956 124.478 164.217C119.345 140.548 120.2 102.334 120.2 102.334Z" fill="#4B59F7"/>
<path d="M64.0212 161.793L124.62 177.763C124.62 177.763 195.771 217.544 184.934 251.622C173.955 285.843 143.157 326.195 143.157 326.195L151.712 335.035L163.404 340.453C166.255 341.594 167.681 344.873 166.826 347.868L165.97 351.005L122.482 338.315L130.324 317.497L144.155 249.626C144.155 249.626 64.8768 233.514 64.0212 161.793Z" fill="#656691"/>
<path d="M165.97 351.005L122.482 338.314L128.755 321.632L143.157 326.195L151.712 335.035L163.404 340.453C166.255 341.594 167.681 344.873 166.826 347.868L165.97 351.005Z" fill="#514E7F"/>
<path d="M97.5291 188.029L102.662 192.45L118.774 174.056L113.784 169.636L97.5291 188.029Z" fill="#514E7F"/>
<path d="M144.155 249.626H160.695L142.443 257.896L144.155 249.626Z" fill="#514E7F"/>
<path d="M654.328 419.016H639.071V331.468H654.328C670.012 331.468 682.845 344.301 682.845 359.985V390.499C682.845 406.183 670.012 419.016 654.328 419.016Z" fill="#4B59F7"/>
<path d="M324.526 463.647H289.45V443.542H324.526V463.647Z" fill="#4B59F7"/>
<path d="M631.514 463.647H596.58V443.542H631.514V463.647Z" fill="#4B59F7"/>
<path d="M644.774 450.956H277.472C269.63 450.956 263.214 444.54 263.214 436.698V180.898C263.214 172.913 269.63 166.64 277.472 166.64H644.774C652.617 166.64 659.033 172.913 659.033 180.898V436.698C659.033 444.54 652.617 450.956 644.774 450.956Z" fill="#3A3768"/>
<path d="M298.29 413.028V227.239C298.29 219.396 304.564 212.98 312.549 212.98H489.07C496.912 212.98 503.329 219.396 503.329 227.239V413.028C503.329 420.871 496.912 427.287 489.07 427.287H312.549C304.564 427.287 298.29 420.871 298.29 413.028Z" stroke="#4B59F7" stroke-width="1.2" stroke-miterlimit="10"/>
<path d="M315.4 316.355C315.4 269.159 353.613 230.946 400.809 230.946C448.005 230.946 486.219 269.159 486.219 316.355C486.219 363.551 448.005 401.764 400.809 401.764C353.613 401.764 315.4 363.551 315.4 316.355Z" fill="#4B59F7"/>
<path d="M309.269 230.946C309.269 227.524 311.978 224.814 315.4 224.814C318.822 224.814 321.532 227.524 321.532 230.946C321.532 234.368 318.822 237.077 315.4 237.077C311.978 237.077 309.269 234.368 309.269 230.946Z" fill="#4B59F7"/>
<path d="M477.663 230.946C477.663 227.524 480.372 224.814 483.795 224.814C487.217 224.814 489.926 227.524 489.926 230.946C489.926 234.368 487.217 237.077 483.795 237.077C480.372 237.077 477.663 234.368 477.663 230.946Z" fill="#4B59F7"/>
<path d="M309.269 407.896C309.269 404.474 311.978 401.765 315.4 401.765C318.822 401.765 321.532 404.474 321.532 407.896C321.532 411.175 318.822 414.027 315.4 414.027C311.978 414.027 309.269 411.175 309.269 407.896Z" fill="#4B59F7"/>
<path d="M477.663 407.896C477.663 404.474 480.372 401.765 483.795 401.765C487.217 401.765 489.926 404.474 489.926 407.896C489.926 411.175 487.217 414.027 483.795 414.027C480.372 414.027 477.663 411.175 477.663 407.896Z" fill="#4B59F7"/>
<path d="M403.804 246.488C394.678 246.488 385.838 248.199 377.711 251.336C364.308 256.469 355.039 275.718 369.868 284.274C382.986 289.834 393.395 300.386 398.956 313.504C400.097 316.355 403.804 316.783 405.657 314.502L428.044 286.555C450.144 247.772 403.804 246.488 403.804 246.488Z" fill="white"/>
<path d="M346.769 365.263C353.328 371.821 360.743 376.812 368.728 380.377C381.846 386.223 401.95 379.236 397.53 362.696C392.112 349.435 392.254 334.606 397.673 321.489C398.813 318.637 396.532 315.643 393.68 316.07L358.034 320.063C314.973 331.755 346.769 365.263 346.769 365.263Z" fill="white"/>
<path d="M466.256 357.848C471.247 350.005 474.526 341.735 476.38 333.18C479.232 319.207 468.11 300.956 452.996 308.798C441.161 316.783 426.618 319.92 412.501 317.353C409.65 316.783 407.226 319.634 408.081 322.486L419.488 356.422C440.163 396.061 466.256 357.848 466.256 357.848Z" fill="white"/>
<path d="M331.228 228.807V407.895" stroke="#3A3768" stroke-width="3.8" stroke-miterlimit="10"/>
<path d="M348.623 228.807V407.895" stroke="#3A3768" stroke-width="3.8" stroke-miterlimit="10"/>
<path d="M366.161 228.807V407.895" stroke="#3A3768" stroke-width="3.8" stroke-miterlimit="10"/>
<path d="M383.699 228.807V407.895" stroke="#3A3768" stroke-width="3.8" stroke-miterlimit="10"/>
<path d="M401.095 228.807V407.895" stroke="#3A3768" stroke-width="3.8" stroke-miterlimit="10"/>
<path d="M418.633 228.807V407.895" stroke="#3A3768" stroke-width="3.8" stroke-miterlimit="10"/>
<path d="M436.171 228.807V407.895" stroke="#3A3768" stroke-width="3.8" stroke-miterlimit="10"/>
<path d="M453.566 228.807V407.895" stroke="#3A3768" stroke-width="3.8" stroke-miterlimit="10"/>
<path d="M471.104 228.807V407.895" stroke="#3A3768" stroke-width="3.8" stroke-miterlimit="10"/>
<path d="M263.214 191.165H659.033" stroke="#4B59F7" stroke-width="1.2" stroke-miterlimit="10"/>
<path d="M580.896 253.617C580.896 256.611 578.472 259.035 575.477 259.035C572.483 259.035 570.202 256.611 570.202 253.617C570.202 250.623 572.483 248.341 575.477 248.341C578.472 248.341 580.896 250.623 580.896 253.617Z" fill="white"/>
<path d="M580.896 236.364C580.896 239.358 578.472 241.782 575.477 241.782C572.483 241.782 570.202 239.358 570.202 236.364C570.202 233.37 572.483 230.946 575.477 230.946C578.472 230.946 580.896 233.37 580.896 236.364Z" fill="#D4333B"/>
<path d="M801.049 468.212L800.336 414.599C807.465 381.662 800.336 354.713 800.336 354.713C800.336 354.713 814.737 256.614 806.039 240.074L773.102 226.671H755.136C755.136 226.671 731.467 234.371 729.043 235.226L688.121 249.2L698.529 275.15C698.529 275.15 713.929 271.586 726.761 268.591C727.617 276.861 728.9 285.559 730.754 292.973C733.32 302.954 733.748 316.643 733.463 328.62L712.075 451.672L721.628 574.866C715.64 577.005 692.541 583.136 692.256 589.267H742.018L738.453 574.866C740.592 566.739 762.408 488.316 751.001 468.212L748.435 460.37C748.435 460.37 754.138 448.107 761.41 431.139C762.693 448.392 764.119 467.499 764.119 467.499C765.117 474.486 761.41 507.138 762.836 518.117C764.547 531.805 778.663 571.729 781.657 580.142C778.948 581.71 776.239 583.706 774.1 585.418C772.104 586.986 773.244 590.123 775.668 590.123H800.193C802.332 590.123 803.615 587.699 802.332 585.988C800.764 583.706 798.482 580.997 796.058 579.001C798.625 568.307 811.315 511.843 801.049 468.212Z" fill="#656691"/>
<path d="M781.657 580.14C778.948 581.709 776.239 583.705 774.1 585.416C772.104 586.984 773.245 590.121 775.668 590.121H800.193C802.332 590.121 803.615 587.697 802.332 585.986C800.764 583.705 798.482 580.996 796.058 579C787.503 573.866 781.657 580.14 781.657 580.14Z" fill="#514E7F"/>
<path d="M721.628 573.868V574.866C715.64 577.005 692.541 583.136 692.256 589.267H742.018L738.596 575.008L721.628 573.868Z" fill="#514E7F"/>
<path d="M732.465 236.222L688.691 249.767L651.048 217.4L644.489 223.532C644.489 223.532 675.003 270.3 684.699 275.433L735.887 262.743C735.887 262.743 751.429 260.604 752.569 248.912C754.138 231.944 732.465 236.222 732.465 236.222Z" fill="white"/>
<path d="M644.489 223.532C644.489 223.532 638.215 219.825 640.639 213.979C643.776 206.422 643.206 202.287 643.206 202.287L644.917 202.572C645.915 202.714 646.628 203.57 646.913 204.568L647.198 211.555L657.037 207.135L659.033 200.861C659.033 200.861 661.742 208.133 661.314 212.268C660.887 214.977 655.896 219.254 655.896 219.254L657.607 223.104L648.197 229.235L644.489 223.532Z" fill="white"/>
<path d="M773.102 226.67H755.136C755.136 226.67 731.467 234.37 729.043 235.226L688.121 249.199L698.529 275.15C700.526 274.722 724.765 269.018 726.761 268.591C727.189 273.153 727.759 278.001 728.615 282.564L734.176 270.872H783.938C783.938 270.872 785.507 289.693 806.182 306.519C808.891 279.142 810.602 248.629 806.039 240.073L773.102 226.67Z" fill="#4B59F7"/>
<path d="M787.075 232.375L778.235 270.873H783.938C783.938 270.873 784.081 271.301 784.223 272.156L792.779 234.656L787.075 232.375Z" fill="#656691"/>
<path d="M737.313 232.516C734.889 233.229 732.75 233.941 731.182 234.512L732.18 274.864H732.322L734.176 270.871H738.168L737.313 232.516Z" fill="#656691"/>
<path d="M726.761 268.59L725.478 251.337L716.78 270.872L726.761 268.59Z" fill="#514E7F"/>
<path d="M775.383 199.009C773.958 201.718 774.528 204.712 776.667 205.853C778.806 206.994 781.657 205.853 783.083 203.144C784.509 200.577 783.796 197.583 781.657 196.442C779.518 195.301 776.667 196.442 775.383 199.009Z" fill="#3A3768"/>
<path d="M754.138 173.343C747.579 174.912 745.726 181.185 745.726 186.889V199.864C745.726 207.136 751.714 213.125 759.129 213.125H768.397C775.669 213.125 781.8 207.136 781.8 199.864C781.8 199.864 781.657 188.172 781.515 184.322C781.23 178.476 778.663 170.349 754.138 173.343Z" fill="black"/>
<path d="M766.543 237.651H759.984C754.994 237.651 751.001 233.658 751.001 228.525L752.285 208.42H776.952L775.669 228.525C775.669 233.658 771.534 237.651 766.543 237.651Z" fill="white"/>
<path d="M751.286 223.392C753.71 226.386 757.132 228.097 761.267 228.097H766.258C769.823 228.097 773.387 227.099 775.811 224.675L776.952 208.42H752.284L751.286 223.392Z" fill="#656691"/>
<path d="M769.252 187.888C764.404 187.888 760.127 186.605 757.132 184.608L749.575 202.859L748.72 196.3C747.579 195.873 746.438 195.873 745.44 196.443C743.302 197.584 742.731 200.578 744.157 203.145C745.155 205.141 747.009 206.281 748.72 206.281V209.846C748.72 217.261 754.708 223.249 762.123 223.249H767.113C774.385 223.249 780.374 217.261 780.374 209.846V190.169C780.374 188.553 780.136 187.032 779.661 185.606C776.809 187.032 773.245 187.888 769.252 187.888Z" fill="white"/>
<path d="M780.374 209.846V205.568C780.374 205.568 770.393 200.578 752.855 205.568C752.855 205.568 751.571 203.715 751.144 199.009L749.575 202.859L749.005 198.582L748.72 206.281L748.862 211.272C749.433 217.973 755.136 223.249 762.123 223.249H767.113C774.385 223.249 780.374 217.26 780.374 209.846Z" fill="black"/>
<path d="M794.49 253.62C787.931 265.455 801.477 310.369 801.477 310.369C796.201 341.168 781.8 360.702 781.8 360.702L771.106 370.683C771.106 370.683 765.402 380.522 767.398 382.66C769.395 384.799 771.676 381.235 771.676 381.235L783.511 384.229L786.505 379.666C792.494 373.107 792.921 366.976 792.921 366.976C814.167 349.153 822.151 331.044 825.288 320.921C826.144 318.354 826.429 315.645 825.859 312.936L821.153 273.44C818.017 247.489 803.188 237.793 794.49 253.62Z" fill="white"/>
<path d="M767.398 382.659C769.395 384.798 771.676 381.234 771.676 381.234L783.511 384.228L786.505 379.665C792.494 373.106 792.921 366.975 792.921 366.975L781.8 360.701L771.106 370.682C771.106 370.682 765.402 380.521 767.398 382.659Z" fill="white"/>
<path d="M796.629 307.802H826.144C826.144 307.802 827.57 242.497 804.043 239.218C776.952 235.511 796.629 307.802 796.629 307.802Z" fill="#4B59F7"/>
<path d="M761.41 431.139L752.57 387.365L756.134 443.402L761.41 431.139Z" fill="#514E7F"/>
<path d="M776.952 302.954H740.735V292.973H776.952V302.954Z" fill="#514E7F"/>
<path d="M0 591.833H854.233" stroke="#4B59F7" stroke-width="3.1" stroke-miterlimit="10"/>
<path d="M606.419 427.289H544.821C536.979 427.289 530.563 420.873 530.563 413.031V227.384C530.563 219.541 536.979 213.125 544.821 213.125H606.419C614.261 213.125 620.677 219.541 620.677 227.384V413.031C620.677 420.873 614.261 427.289 606.419 427.289Z" stroke="#4B59F7" stroke-width="1.2" stroke-miterlimit="10"/>
</svg>
