<svg width="1097" height="806" viewBox="0 0 1097 806" fill="none" xmlns="http://www.w3.org/2000/svg">
<path opacity="0.1" d="M647.306 133.11C582.172 130.846 520.137 109.823 460.901 86.8178C401.664 63.8127 342.992 38.3219 279.377 26.135C238.528 18.2955 191.761 17.1885 158.811 39.0967C127.11 60.2301 116.865 96.6096 111.36 130.393C107.213 155.823 104.778 182.572 116.13 206.372C124.02 222.896 138.009 236.784 147.69 252.664C181.375 307.731 157.563 375.64 121.071 429.409C103.963 454.628 84.0862 478.72 70.8723 505.549C57.6583 532.379 51.5495 563.163 63.113 590.546C74.5657 617.717 101.869 638.085 131.447 652.436C191.519 681.56 262.279 689.902 331.327 694.622C484.129 705.078 637.735 700.55 790.938 696.021C847.639 694.34 904.581 692.64 960.355 683.874C991.332 679.004 1023.31 671.275 1045.79 652.678C1074.34 628.998 1081.41 588.895 1062.28 559.208C1030.2 509.404 941.515 497.026 919.063 443.578C906.724 414.163 919.395 381.386 937.339 354.104C975.823 295.565 1040.32 244.221 1043.71 177.309C1046.05 131.359 1015.04 85.3385 967.098 63.5913C916.848 40.7975 847.156 43.6656 810.1 81.3936C771.907 120.158 704.821 135.102 647.306 133.11Z" fill="#4B59F7"/>
<path d="M940.569 603.52C940.569 603.52 949.219 614.84 936.569 631.92C923.919 649 913.499 663.42 917.719 674.07C917.719 674.07 936.799 642.35 952.329 641.9C967.859 641.45 957.649 622.6 940.569 603.52Z" fill="#4B59F7"/>
<path opacity="0.1" d="M940.57 603.52C941.322 604.615 941.918 605.81 942.34 607.07C957.49 624.87 965.56 641.49 950.99 641.9C937.43 642.29 921.15 666.55 917.26 672.67C917.383 673.146 917.537 673.614 917.72 674.07C917.72 674.07 936.8 642.35 952.33 641.9C967.86 641.45 957.65 622.6 940.57 603.52Z" fill="black"/>
<path d="M956.65 617.98C956.65 621.98 956.2 625.19 955.65 625.19C955.1 625.19 954.65 621.96 954.65 617.98C954.65 614 955.21 615.88 955.76 615.88C956.31 615.88 956.65 613.98 956.65 617.98Z" fill="#FFD037"/>
<path d="M962.171 622.7C958.671 624.6 955.631 625.76 955.361 625.27C955.091 624.78 957.721 622.85 961.221 620.94C964.721 619.03 963.331 620.43 963.601 620.94C963.871 621.45 965.671 620.79 962.171 622.7Z" fill="#FFD037"/>
<path d="M894.869 603.52C894.869 603.52 886.219 614.84 898.869 631.92C911.519 649 921.939 663.42 917.729 674.07C917.729 674.07 898.649 642.35 883.119 641.9C867.589 641.45 877.789 622.6 894.869 603.52Z" fill="#4B59F7"/>
<path opacity="0.1" d="M894.87 603.52C894.113 604.612 893.517 605.808 893.1 607.07C877.95 624.87 869.88 641.49 884.44 641.9C898.01 642.29 914.28 666.55 918.18 672.67C918.053 673.145 917.899 673.612 917.72 674.07C917.72 674.07 898.64 642.35 883.11 641.9C867.58 641.45 877.79 622.6 894.87 603.52Z" fill="black"/>
<path d="M878.779 617.98C878.779 621.98 879.229 625.19 879.779 625.19C880.329 625.19 880.779 621.96 880.779 617.98C880.779 614 880.219 615.88 879.669 615.88C879.119 615.88 878.779 613.98 878.779 617.98Z" fill="#FFD037"/>
<path d="M873.23 622.7C876.72 624.6 879.77 625.76 880.03 625.27C880.29 624.78 877.68 622.85 874.18 620.94C870.68 619.03 872.06 620.43 871.8 620.94C871.54 621.45 869.77 620.79 873.23 622.7Z" fill="#FFD037"/>
<path d="M881.539 672.59C881.539 672.59 905.729 671.84 913.019 666.65C920.309 661.46 950.229 655.26 952.019 663.59C953.809 671.92 988.369 705 961.019 705.22C933.669 705.44 897.559 700.96 890.289 696.53C883.019 692.1 881.539 672.59 881.539 672.59Z" fill="#A8A8A8"/>
<path opacity="0.2" d="M961.569 702.32C934.259 702.54 898.109 698.06 890.839 693.63C885.289 690.26 883.089 678.15 882.349 672.56H881.539C881.539 672.56 883.069 692.07 890.349 696.5C897.629 700.93 933.769 705.41 961.079 705.19C968.959 705.12 971.689 702.32 971.539 698.19C970.439 700.7 967.439 702.27 961.569 702.32Z" fill="black"/>
<path d="M815.721 85.71C815.721 85.71 731.521 80.63 741.451 139.63C741.451 139.63 739.451 150.06 748.931 154.79C748.931 154.79 749.081 150.42 757.561 151.9C760.582 152.411 763.654 152.559 766.711 152.34C770.844 152.064 774.773 150.445 777.901 147.73C777.901 147.73 801.561 137.95 810.771 99.27C810.771 99.27 817.581 90.83 817.311 88.66L803.101 94.73C803.101 94.73 807.951 104.98 804.101 113.5C804.101 113.5 803.641 95.1 800.911 95.5C800.351 95.58 793.521 99.05 793.521 99.05C793.521 99.05 801.881 116.9 795.521 129.88C795.521 129.88 797.911 107.88 790.861 100.34L780.861 106.18C780.861 106.18 790.621 124.62 784.011 139.67C784.011 139.67 785.701 116.59 778.761 107.6L769.701 114.67C769.701 114.67 778.871 132.84 773.281 145.32C773.281 145.32 772.541 118.46 767.731 116.43C767.731 116.43 759.801 123.43 758.591 126.29C758.591 126.29 764.871 139.49 760.981 146.45C760.981 146.45 758.591 128.55 756.631 128.45C756.631 128.45 748.731 140.31 747.911 148.45C747.911 148.45 748.251 136.36 754.711 127.33C754.711 127.33 747.081 128.64 742.621 133.59C742.621 133.59 743.851 125.21 756.621 124.47C756.621 124.47 763.151 115.47 764.901 114.93C764.901 114.93 752.151 113.86 744.421 117.29C744.421 117.29 751.221 109.38 767.241 112.98L776.181 105.67C776.181 105.67 759.401 103.38 752.281 105.91C752.281 105.91 760.481 98.91 778.601 104.01L788.341 98.19C788.341 98.19 774.031 95.1 765.501 96.19C765.501 96.19 774.501 91.34 791.191 96.6L798.191 93.47C798.191 93.47 787.701 91.41 784.631 91.08C781.561 90.75 781.401 89.91 781.401 89.91C788.092 88.7984 794.961 89.5812 801.231 92.17C801.231 92.17 815.971 86.64 815.721 85.71Z" fill="#4B59F7"/>
<path d="M729.36 59.4701C729.36 59.4701 691.36 57.1801 695.8 83.8401C695.8 83.8401 694.91 88.5501 699.18 90.6901C699.18 90.6901 699.25 88.6901 703.08 89.3801C704.444 89.6097 705.831 89.6768 707.21 89.5801C709.078 89.4546 710.854 88.7245 712.27 87.5001C712.27 87.5001 722.96 83.0801 727.12 65.6001C727.12 65.6001 730.2 61.7901 730.12 60.8101L723.7 63.5501C723.7 63.5501 725.89 68.1801 724.16 72.0301C724.16 72.0301 723.96 63.7201 722.72 63.9101C722.47 63.9101 719.39 65.5201 719.39 65.5201C719.39 65.5201 723.16 73.5801 720.31 79.4501C720.31 79.4501 721.39 69.5101 718.21 66.1001L713.69 68.7401C713.69 68.7401 718.1 77.0701 715.11 83.8701C715.11 83.8701 715.88 73.4401 712.74 69.3801L708.64 72.5801C708.64 72.5801 712.79 80.7901 710.26 86.4301C710.26 86.4301 709.93 74.2901 707.76 73.3701C707.76 73.3701 704.17 76.5301 703.63 77.8301C703.63 77.8301 706.46 83.8301 704.7 86.9401C704.7 86.9401 703.62 78.8501 702.7 78.8101C702.7 78.8101 699.13 84.1701 698.76 87.8101C698.933 84.4166 699.992 81.1276 701.83 78.2701C699.773 78.6594 697.875 79.6433 696.37 81.1001C696.37 81.1001 696.92 77.3101 702.71 76.9801C702.71 76.9801 705.66 72.9101 706.45 72.6601C706.45 72.6601 700.69 72.1801 697.2 73.7301C697.2 73.7301 700.27 70.1601 707.51 71.7301L711.51 68.4301C711.51 68.4301 703.93 67.4301 700.71 68.5401C700.71 68.5401 704.42 65.3801 712.6 67.6801L717 65.0501C717 65.0501 710.54 63.6601 706.69 64.1601C706.69 64.1601 710.75 61.9701 718.29 64.3401L721.44 62.9301C721.44 62.9301 716.71 62.0001 715.32 61.8501C713.93 61.7001 713.86 61.3201 713.86 61.3201C716.859 60.821 719.937 61.1673 722.75 62.3201C722.75 62.3201 729.47 59.8901 729.36 59.4701Z" fill="#4B59F7"/>
<path d="M57.21 684.46C79.4174 684.46 97.42 681.416 97.42 677.66C97.42 673.905 79.4174 670.86 57.21 670.86C35.0026 670.86 17 673.905 17 677.66C17 681.416 35.0026 684.46 57.21 684.46Z" fill="#4B59F7"/>
<path d="M73.8295 666.53C75.6678 665.039 77.0075 663.023 77.6695 660.75C78.1595 658.45 77.1795 655.75 74.9895 654.86C72.5295 653.91 69.8995 655.62 67.9095 657.34C65.9195 659.06 63.6295 661.03 61.0195 660.66C62.3564 659.442 63.3548 657.897 63.9174 656.178C64.4799 654.459 64.5875 652.623 64.2295 650.85C64.1217 650.113 63.81 649.42 63.3295 648.85C61.9695 647.39 59.4895 648.02 57.8495 649.17C52.6495 652.83 51.1995 659.89 51.1795 666.25C50.6495 663.95 51.0895 661.56 51.0795 659.25C51.0695 656.94 50.4195 654.25 48.4395 653.03C47.2117 652.37 45.8328 652.043 44.4395 652.08C42.0995 652 39.4995 652.23 37.8995 653.94C35.8995 656.06 36.4295 659.63 38.1595 661.94C39.8895 664.25 42.5095 665.74 44.9195 667.36C46.8607 668.511 48.5155 670.087 49.7595 671.97C49.907 672.23 50.0276 672.505 50.1195 672.79H64.7695C68.0587 671.123 71.1065 669.017 73.8295 666.53Z" fill="#4B59F7"/>
<path d="M652.045 428.514L623.133 411.822V142.272L652.045 158.965V428.514Z" fill="#E6E6E6"/>
<path d="M652.044 397.818L619.668 416.278L611.397 421.017L581.919 437.85L578.243 439.902L572.093 443.438L549.401 456.382C549.354 456.429 549.283 456.476 549.189 456.523L545.866 458.362C545.819 458.409 545.795 458.433 545.795 458.433C545.748 458.48 545.701 458.503 545.654 458.503L534.556 464.869C534.485 464.869 533.212 465.576 533.212 465.576L438.769 519.472L356.697 566.295L305.729 553.776L423.853 485.593L478.427 454.047L553.642 410.62L594.29 387.138L613.871 375.821L652.044 397.818Z" fill="white"/>
<path opacity="0.5" d="M499.209 103.654V304.172L617.829 373.345V171.059L499.209 103.654Z" fill="#464FCC"/>
<g style="mix-blend-mode:screen" opacity="0.5">
<path d="M593.017 365.212L500.553 187.398V209.253L574.071 350.571L593.017 365.212Z" fill="white"/>
</g>
<g style="mix-blend-mode:screen" opacity="0.5">
<path d="M615.426 365.212V357.785L500.553 137.039V180.75L596.551 365.212H615.426Z" fill="white"/>
</g>
<g style="mix-blend-mode:screen" opacity="0.5">
<path d="M615.425 233.584L565.164 137.039L508.328 107.049L615.425 312.872V233.584Z" fill="white"/>
</g>
<path d="M505.076 301.131L508.681 299.009L615.284 360.614L611.678 362.736L505.076 301.131Z" fill="#808080"/>
<path d="M505.571 112.991L509.176 110.869L508.681 299.009L505.076 301.131L505.571 112.991Z" fill="#808080"/>
<path d="M625.535 166.957L629.14 164.835L628.504 383.601L624.898 385.723L625.535 166.957Z" fill="#808080"/>
<path d="M492.352 90.0037L495.957 87.8818L629.139 164.835L625.534 166.957L492.352 90.0037Z" fill="#808080"/>
<path fill-rule="evenodd" clip-rule="evenodd" d="M492.351 90.0037L625.533 166.957L624.897 385.723L491.715 308.77L492.351 90.0037ZM611.678 362.665L612.243 174.525L505.641 112.991L505.075 301.131L611.678 362.665Z" fill="#464FCC"/>
<path d="M592.1 354.178C582.557 336.99 572.519 323.269 561.844 314.003L531.447 331.474C545.515 346.61 558.451 357.078 571.105 366.768L593.443 355.875C593.019 355.309 592.571 354.744 592.1 354.178Z" fill="black"/>
<path d="M491.649 542.035C490.377 544.794 491.508 550.381 493.275 556.535C496.244 562.547 502.182 560.778 507.484 560.495C517.664 560 524.167 566.366 537.245 563.608C545.092 561.91 549.969 559.152 550.535 553.847C550.323 551.513 548.485 549.532 545.233 547.764C545.233 547.764 525.652 543.45 525.086 543.238C524.591 543.025 515.331 538.852 515.048 538.286C514.765 537.65 508.969 524.565 508.969 524.565L489.67 528.597L491.649 542.035Z" fill="black"/>
<path d="M463.657 572.024C462.243 577.965 461.96 579.663 463.02 583.977C464.081 586.17 465 587.16 466.131 590.202C467.545 594.021 467.827 600.528 473.836 604.065C481.117 609.016 494.478 608.379 498.295 602.296C498.083 599.467 495.75 593.314 491.933 588.504L484.298 576.339L483.945 564.527L464.222 561.556L463.657 572.024Z" fill="black"/>
<path d="M483.236 389.755L499.425 467.133C497.94 490.898 490.376 514.521 493.133 537.367C495.112 546.774 514.694 544.864 518.228 537.791C516.532 519.967 526.216 493.373 529.398 464.02C529.539 435.163 528.408 405.457 521.904 382.682L483.236 389.755Z" fill="black"/>
<path d="M522.823 389.26C523.884 397.252 514.34 419.178 502.394 429.505C503.03 446.692 502.818 476.61 501.263 496.132C494.052 524.706 487.549 552.079 486.842 569.902C483.873 574.288 474.188 576.551 467.896 574.641C467.331 574.5 466.977 574.429 466.624 574.217C466.483 574.17 466.341 574.099 466.2 574.005C463.938 573.015 462.382 571.246 462.17 568.629C460.827 546.137 463.372 523.08 468.179 499.81L461.746 420.522C457.081 409.913 454.253 397.464 458.919 378.226L464.291 379.145L522.823 389.26Z" fill="black"/>
<path d="M561.139 325.108C556.544 354.602 533.852 369.95 533.852 369.95L529.187 379.357L522.966 391.664C469.806 414.651 458.92 378.226 458.92 378.226C462.101 339.466 487.62 327.088 487.62 327.088C497.093 310.538 515.543 300.706 515.543 300.706C574.005 273.688 561.139 325.108 561.139 325.108Z" fill="black"/>
<g style="mix-blend-mode:multiply" opacity="0.5">
<path d="M458.919 378.226C458.919 378.226 486.912 380.135 494.335 356.158L508.897 351.985C508.897 351.985 513.916 376.316 529.186 379.357L517.875 407.72C509.533 411.327 502.394 413.095 496.244 413.449C475.036 431.273 475.46 472.296 479.985 501.153C468.957 516.502 468.391 545.571 467.896 574.641C467.614 574.547 467.189 574.405 466.624 574.217C466.483 574.17 466.341 574.099 466.2 574.005C463.938 573.014 462.382 571.246 462.17 568.629C460.827 546.137 463.372 523.079 468.179 499.81L461.746 420.522C457.081 409.912 454.253 397.464 458.919 378.226Z" fill="#232434"/>
</g>
<path d="M561.845 335.081L556.19 337.839L545.94 342.932L545.162 343.285C545.162 343.285 533.852 344.983 531.448 331.474C528.974 317.469 536.397 315.842 536.397 315.842L549.404 314.003L561.845 335.081Z" fill="#F79974"/>
<g style="mix-blend-mode:multiply" opacity="0.5">
<path d="M556.19 337.839L545.939 342.932C545.232 338.193 549.333 328.22 549.333 328.22H550.251L556.19 337.839Z" fill="#F28F85"/>
</g>
<path d="M548.556 331.261C548.556 331.261 532.297 306.86 554.989 295.19C561.351 291.936 577.116 293.351 583.761 305.233C587.861 312.66 592.88 320.935 580.933 333.383L581.286 337.273C581.64 339.183 581.004 340.456 579.378 340.527L577.398 340.315C577.398 340.315 572.521 346.256 567.007 346.539C561.493 346.822 550.182 341.164 548.556 331.261Z" fill="#F79974"/>
<path d="M553.716 331.332C553.786 331.261 557.038 333.171 557.038 333.171C561.987 330.837 566.228 331.757 569.48 324.896C569.48 324.896 575.276 330.766 586.022 326.805C586.022 326.805 585.739 325.037 586.87 323.057C589.485 318.601 591.747 302.616 573.368 294.553C567.995 292.219 559.583 289.39 549.898 297.806C539.79 306.577 539.436 320.44 544.95 329.847C546.717 332.959 551.029 333.808 553.716 331.332Z" fill="black"/>
<path d="M556.967 328.503C555.836 326.947 553.362 326.593 551.666 327.654C549.969 328.715 549.191 330.837 549.333 332.817C549.403 333.808 549.757 334.869 550.534 335.576C551.524 336.495 553.079 336.566 554.352 336C557.179 334.869 558.876 331.261 556.967 328.503Z" fill="#F79974"/>
<path d="M580.506 315.559C574.285 319.379 558.874 320.086 560.571 321.076C568.913 326.169 588.989 342.154 601.148 329.493C608.358 322.067 594.079 310.962 584.111 306.011C582.485 309.335 585.525 312.518 580.506 315.559Z" fill="#11304D"/>
<path d="M561.915 322.137C554.21 320.228 545.374 316.196 541.698 311.882C541.698 311.882 540.355 291.653 557.038 289.319C583.688 285.57 589.98 307.638 587.506 313.013C583.759 321.147 574.428 325.179 561.915 322.137Z" fill="#232434"/>
<path d="M572.095 443.438L549.403 456.382C549.356 456.429 549.285 456.476 549.191 456.523L545.798 458.433C545.75 458.48 545.703 458.503 545.656 458.503L534.558 464.869C534.487 464.869 533.215 465.576 533.215 465.576L438.771 519.472L423.855 485.593L478.429 454.047L553.644 410.62L571.034 441.599L572.095 443.438Z" fill="white"/>
<path opacity="0.5" d="M232.492 261.381V461.969L351.112 531.072V328.857L232.492 261.381Z" fill="#464FCC"/>
<g style="mix-blend-mode:screen" opacity="0.5">
<path d="M326.371 522.938L233.836 345.195V367.05L307.355 508.297L326.371 522.938Z" fill="white"/>
</g>
<g style="mix-blend-mode:screen" opacity="0.5">
<path d="M348.709 522.938V515.582L233.836 294.765V338.476L329.834 522.938H348.709Z" fill="white"/>
</g>
<g style="mix-blend-mode:screen" opacity="0.5">
<path d="M348.71 391.381L298.449 294.765L241.684 264.846L348.71 470.669V391.381Z" fill="white"/>
</g>
<path d="M238.361 458.928L241.967 456.806L348.569 518.411L344.963 520.462L238.361 458.928Z" fill="#808080"/>
<path d="M238.927 270.788L242.532 268.666L241.967 456.806L238.361 458.928L238.927 270.788Z" fill="#808080"/>
<path d="M358.888 324.754L362.493 322.632L361.857 541.398L358.252 543.449L358.888 324.754Z" fill="#808080"/>
<path d="M225.637 247.73L229.242 245.679L362.495 322.633L358.889 324.754L225.637 247.73Z" fill="#808080"/>
<path fill-rule="evenodd" clip-rule="evenodd" d="M225.636 247.73L358.889 324.754L358.253 543.45L225 466.496L225.636 247.73ZM344.963 520.463L345.528 332.322L238.926 270.717L238.431 458.857L344.963 520.463Z" fill="#464FCC"/>
<path fill-rule="evenodd" clip-rule="evenodd" d="M666.182 134.563V406.093L342.559 590.626V320.298L666.182 134.563ZM652.044 158.965L356.697 328.503V566.295L652.044 397.818V158.965Z" fill="#464FCC"/>
<path d="M449.939 499.597C450.033 499.55 450.104 499.479 450.151 499.385L451.141 496.556C451.188 496.414 451.282 496.32 451.424 496.273C451.636 496.132 451.918 496.132 452.272 496.132L455.665 496.627C455.806 496.674 455.948 496.721 456.089 496.768L455.524 498.466C455.453 498.536 455.382 500.375 455.382 500.375C455.382 500.658 455.806 500.87 456.231 500.8C457.15 500.729 457.998 500.446 458.705 500.092C460.401 499.244 461.532 497.829 461.603 496.485V495.354C461.815 495 462.098 494.788 462.522 494.575L489.031 481.066C489.667 480.713 490.586 480.642 491.505 480.713C493.414 480.854 495.323 480.571 496.807 479.864C497.09 479.722 497.373 479.534 497.656 479.298C498.504 478.661 499.069 477.671 499.069 476.61L499.211 474.701C499.281 473.569 498.716 472.296 497.231 471.447C496.949 471.235 496.524 471.235 496.312 471.376C496.218 471.423 496.147 471.494 496.1 471.588L494.545 474.488C494.498 474.583 494.427 474.653 494.333 474.701C494.05 474.842 493.697 474.842 493.343 474.771L490.021 474.064C489.95 474.064 490.798 472.508 490.798 472.508C490.798 472.366 490.869 470.527 490.869 470.527C491.011 470.315 490.516 470.032 490.021 470.103C488.961 470.245 488.042 470.528 487.264 470.952C485.638 471.801 484.578 473.003 484.507 474.276L484.436 475.691C484.295 475.974 484.012 476.209 483.588 476.398L457.15 489.907C456.513 490.19 455.594 490.332 454.746 490.261C453.403 490.19 451.989 490.261 450.717 490.615C450.151 490.756 449.656 490.945 449.232 491.18C447.748 491.958 446.97 493.09 446.97 494.293C446.97 494.222 446.899 496.061 446.899 496.061C446.829 497.334 447.536 498.678 449.02 499.597C449.303 499.739 449.727 499.739 449.939 499.597Z" fill="#4D4D4D"/>
<path d="M458.844 498.183C458.066 498.536 457.289 498.819 456.37 498.961C455.875 499.031 455.38 498.748 455.522 498.465L456.511 495.424C456.653 495.141 456.299 494.858 455.734 494.788L452.34 494.292C452.058 494.222 451.704 494.292 451.492 494.363C451.351 494.458 451.256 494.552 451.209 494.646L450.29 497.475C450.243 497.57 450.173 497.64 450.078 497.687C449.796 497.829 449.371 497.829 449.089 497.687C446.332 495.919 446.12 492.736 449.23 491.18C449.654 490.945 450.149 490.756 450.715 490.615C451.987 490.261 453.401 490.19 454.744 490.261C455.592 490.332 456.511 490.19 457.147 489.907L483.586 476.398C484.293 476.044 484.717 475.478 484.576 474.983C484.222 473.427 485.353 471.942 487.262 470.952C488.039 470.527 488.958 470.244 490.019 470.103C490.514 470.032 491.008 470.315 490.867 470.598L489.383 473.357C489.241 473.639 489.524 473.993 490.019 474.064L493.341 474.771C493.695 474.842 494.048 474.842 494.331 474.7C494.425 474.653 494.496 474.583 494.543 474.488L496.098 471.588C496.145 471.494 496.216 471.423 496.31 471.376C496.522 471.235 496.946 471.235 497.229 471.447C499.986 473.074 499.562 476.044 497.724 477.459C497.441 477.648 497.159 477.813 496.876 477.954C495.462 478.732 493.483 478.944 491.574 478.803C490.655 478.732 489.807 478.873 489.1 479.227L462.591 492.666C461.954 493.019 461.53 493.514 461.672 494.01C461.884 495.566 460.753 497.192 458.844 498.183Z" fill="#CCCCCC"/>
<path d="M412.26 504.124C412.26 502.922 411.482 501.578 410.422 501.012L408.796 500.022C408.301 499.739 407.806 499.668 407.523 499.88L453.119 473.427C453.402 473.215 453.897 473.215 454.392 473.498L456.088 474.488C457.078 475.054 457.855 476.469 457.855 477.6C457.855 478.166 457.643 478.591 457.361 478.732L411.694 505.256C412.048 505.043 412.26 504.69 412.26 504.124Z" fill="#BD8B55"/>
<path d="M429.227 494.576C429.298 493.302 428.379 491.817 427.319 491.181L425.41 490.12C424.915 489.766 424.491 490.049 424.138 490.261C424.067 490.049 424.208 489.837 424.42 489.695L453.898 472.508C454.252 472.367 454.747 472.366 455.312 472.649L457.15 473.781C458.211 474.418 459.13 475.903 459.13 477.176C459.13 477.813 458.918 478.237 458.564 478.449L429.581 495.354C429.227 495.566 428.945 495.424 428.803 495.354C429.015 495.212 428.803 495.354 429.227 495.071C429.298 495 429.227 494.858 429.227 494.576Z" fill="#E34248"/>
<path d="M409.363 514.38L415.867 513.885L419.543 511.763V505.115L415.867 507.236L409.363 507.661V514.38Z" fill="#4F4F4F"/>
<path d="M409.364 507.661L393.953 498.749V505.468L409.364 514.38V507.661Z" fill="#585858"/>
<path d="M415.867 507.237L419.543 505.115L401.093 494.435L393.953 498.749L409.364 507.661L415.867 507.237Z" fill="#373737"/>
<path d="M403.07 509.429C404.059 509.994 404.837 509.499 404.837 508.368C404.837 507.236 404.059 505.821 403.07 505.256L401.373 504.265C400.383 503.7 399.606 504.195 399.535 505.326C399.535 506.458 400.383 507.873 401.373 508.438L403.07 509.429Z" fill="#BD8B55"/>
<g style="mix-blend-mode:multiply" opacity="0.2">
<path d="M619.738 416.136C619.738 416.184 619.714 416.231 619.667 416.278C619.385 417.056 618.536 417.551 617.759 417.905C615.638 418.942 613.517 419.979 611.396 421.017C611.255 421.111 611.114 421.182 610.972 421.229C609.912 421.724 608.639 422.29 607.579 421.653C606.448 421.017 606.448 419.39 606.307 418.046C606.095 415.217 604.822 412.883 603.126 410.69C602.749 410.172 602.442 409.747 602.207 409.417C599.426 408.946 596.622 408.474 593.794 408.003C591.744 407.649 589.624 407.295 587.574 407.649C585.524 408.003 583.473 409.205 582.696 411.185C581.07 415.146 585.241 418.895 586.867 422.856C589.058 428.09 586.443 434.385 581.918 437.85C581.494 438.18 581.046 438.487 580.575 438.77C579.821 439.194 579.043 439.571 578.242 439.902C575.98 440.892 573.506 441.387 571.032 441.599C568.204 441.811 565.377 441.599 562.62 441.104C556.469 440.114 550.602 438.063 544.452 437.072C538.373 436.082 531.728 436.294 526.496 439.548L517.024 442.66C525.648 447.823 545.795 449.874 549.966 456.028C549.777 456.169 549.589 456.287 549.4 456.381C549.353 456.429 549.283 456.476 549.188 456.523C548.269 457.089 547.138 457.725 545.866 458.362C545.819 458.409 545.795 458.433 545.795 458.433C545.748 458.48 545.701 458.503 545.654 458.503C542.048 460.484 537.595 462.747 534.555 464.869C534.131 465.152 533.778 465.435 533.424 465.718C533.424 465.671 533.354 465.623 533.212 465.576C530.031 464.728 491.929 460.201 487.758 459.423C483.94 458.716 479.063 458.291 478.427 455.321L478.285 455.391C478.285 455.156 478.309 454.92 478.356 454.684C478.356 454.448 478.379 454.236 478.427 454.047L553.642 410.62L594.289 387.137C594.666 387.373 595.043 387.609 595.42 387.845C601.641 391.947 607.862 396.049 614.083 400.152C615.638 401.142 617.264 402.203 618.324 403.759C619.385 405.315 619.809 407.437 618.819 409.064C618.183 410.125 617.193 410.69 615.991 410.973C617.193 411.61 618.183 412.529 619.031 413.661C619.597 414.368 620.021 415.288 619.738 416.136Z" fill="#004759"/>
</g>
<path d="M607.58 397.181L608.358 406.659L607.156 412.105L606.52 415.641L606.873 421.512C606.944 425.119 610.69 423.422 610.478 420.875V416.985L612.528 413.095L615.073 415.783L616.77 422.432L616.416 428.09C616.063 430.424 619.103 430 619.315 428.444V430.07C619.244 431.98 622.284 431.697 622.566 430.212L623.061 428.231C623.061 429.858 625.677 429.504 625.889 427.595L626.172 425.544C626.384 427.029 628.504 426.746 628.504 424.553L629.423 417.198L627.656 408.569L619.244 398.808L610.549 395.696L607.58 397.181Z" fill="#F79974"/>
<path d="M593.442 355.875L571.104 366.768C571.858 367.381 572.612 367.97 573.366 368.536C584.393 386.43 595.068 398.384 608.146 407.649C609.63 402.486 613.73 399.515 619.739 399.303C611.044 382.399 602.844 367.829 593.442 355.875Z" fill="black"/>
<path d="M521.055 443.65L526.003 456.24C526.003 456.24 528.194 461.545 529.538 463.101C531.234 465.011 533.426 465.718 533.426 465.718L535.264 475.125C535.758 477.742 537.455 477.388 538.515 476.257L539.364 478.874C539.859 480.5 541.909 479.935 542.191 477.883C543.11 480.43 545.655 478.591 545.16 476.681L544.736 473.993C545.584 476.469 547.564 475.549 547.564 472.72L547.281 460.767L544.736 454.543L547.352 455.038L551.028 457.584C553.219 458.857 555.481 457.796 553.643 455.392L549.048 451.006L535.546 447.045L526.922 441.741L521.055 443.65Z" fill="#F79974"/>
<path d="M483.729 358.28L493.272 408.144C494.544 415.571 493.272 421.795 502.886 431.768C516.034 445.136 517.024 449.096 525.648 455.391C525.931 451.855 531.092 446.055 535.899 446.975L517.872 410.054L517.59 374.831C521.053 348.307 484.011 324.259 483.729 358.28Z" fill="black"/>
<path d="M587.856 414.793L563.679 428.726C563.538 428.726 563.396 428.938 563.396 429.292C563.396 429.858 563.821 430.565 564.315 430.848C564.551 430.99 564.763 431.013 564.952 430.919C564.881 430.919 589.128 416.985 589.128 416.985L592.309 415.995L594.783 413.661L593.511 411.468L590.33 412.458L587.856 414.793Z" fill="#999999"/>
<path d="M546.998 435.092L563.61 426.887C563.964 426.746 564.529 426.746 565.095 427.1C566.155 427.736 567.074 429.292 567.074 430.565C567.074 431.202 566.862 431.697 566.438 431.98L551.027 442.165C551.593 441.882 551.876 441.246 551.876 440.255C551.876 438.416 550.603 436.224 548.977 435.304C548.2 434.809 547.493 434.809 546.998 435.092Z" fill="#FF3B42"/>
<path d="M546.146 437.002C546.146 435.163 547.419 434.385 548.974 435.304C550.6 436.223 551.872 438.416 551.872 440.255C551.872 442.165 550.6 442.872 548.974 441.953C547.419 441.033 546.146 438.84 546.146 437.002Z" fill="#A32126"/>
<path d="M594.785 413.661L592.099 415.641L590.473 412.883L593.512 411.468L594.785 413.661Z" fill="#E6E6E6"/>
<path d="M590.33 416.207L592.097 415.641L590.472 412.883L589.128 414.015C588.634 414.439 588.492 415.146 588.775 415.712C589.058 416.207 589.765 416.42 590.33 416.207Z" fill="#B3B3B3"/>
<g style="mix-blend-mode:multiply" opacity="0.2">
<path d="M774.624 405.032L774.694 442.872L676.858 499.385L676.787 461.616L774.624 405.032Z" fill="#004759"/>
</g>
<path d="M709.588 487.927L676.999 468.972L676.787 394.564L676.929 394.706L709.376 413.52L709.446 422.361L709.588 487.927Z" fill="#B3B3B3"/>
<path d="M807.283 357.007L774.624 338.052L676.787 394.564L709.376 413.52L807.283 357.007Z" fill="white"/>
<path d="M807.494 431.414L709.587 487.927L709.375 413.52C709.587 413.449 807.282 357.007 807.282 357.007V366.06L807.494 431.414Z" fill="#E6E6E6"/>
<path d="M763.665 394.211L713.828 422.998V480.642L763.665 451.855V394.211Z" fill="#999999"/>
<path d="M760.838 424.695C760.838 410.62 750.941 404.891 738.712 411.964C726.553 418.966 716.656 436.083 716.656 450.158C716.656 464.233 726.553 469.962 738.712 462.889C750.941 455.887 760.838 438.77 760.838 424.695Z" fill="#666666"/>
<path d="M758.576 425.968C758.576 413.308 749.739 408.144 738.711 414.51C727.754 420.805 718.918 436.224 718.918 448.884C718.918 461.545 727.754 466.708 738.711 460.343C749.739 454.048 758.576 438.629 758.576 425.968Z" fill="black"/>
<mask id="mask0_2595_3327" style="mask-type:luminance" maskUnits="userSpaceOnUse" x="718" y="411" width="41" height="53">
<path d="M758.588 425.954C758.588 413.293 749.702 408.158 738.745 414.489C727.788 420.826 718.902 436.217 718.902 448.884C718.902 461.545 727.788 466.673 738.745 460.342C749.702 454.012 758.588 438.614 758.588 425.954Z" fill="white"/>
</mask>
<g mask="url(#mask0_2595_3327)">
<path d="M739.275 446.763C739.275 442.094 735.741 437.002 733.973 438.063C731.994 439.195 733.337 441.033 728.601 450.653C725.42 457.018 728.813 457.867 733.973 454.896C736.872 453.199 739.275 451.431 739.275 446.763Z" fill="#808080"/>
<path d="M719.908 448.036C723.938 445.702 730.158 437.992 730.158 435.941C730.158 433.678 727.896 436.507 721.888 434.456C717.929 433.183 715.525 438.417 715.525 444.358C715.596 447.753 715.879 450.37 719.908 448.036Z" fill="#808080"/>
<path d="M728.531 420.663C728.531 425.332 732.066 430.424 733.904 429.363C735.812 428.232 734.469 426.393 739.276 416.773C742.387 410.408 738.994 409.559 733.904 412.53C730.935 414.227 728.531 415.995 728.531 420.663Z" fill="#808080"/>
<path d="M747.899 419.39C743.869 421.724 737.648 429.434 737.648 431.485C737.648 433.748 739.911 430.919 745.919 432.899C749.878 434.243 752.281 429.009 752.281 423.068C752.281 419.673 751.928 417.056 747.899 419.39Z" fill="#808080"/>
<path d="M739.912 430.424C739.912 426.746 737.297 425.19 734.115 427.1C730.864 428.939 728.248 433.465 728.248 437.214C728.248 440.892 730.864 442.448 734.115 440.538C737.297 438.699 739.912 434.173 739.912 430.424Z" fill="#333333"/>
<path d="M729.945 440.963L732.702 442.519L740.902 428.232L738.216 426.676L729.945 440.963Z" fill="#333333"/>
<path d="M742.598 431.98C742.598 428.302 739.982 426.746 736.801 428.656C733.549 430.495 730.934 435.021 730.934 438.77C730.934 442.448 733.549 444.004 736.801 442.094C739.982 440.255 742.598 435.729 742.598 431.98Z" fill="#666666"/>
<path d="M742.175 433.466C742.175 430.636 740.267 429.505 737.793 430.919C735.389 432.334 733.48 435.729 733.48 438.487C733.48 441.317 735.389 442.448 737.793 441.034C740.267 439.619 742.175 436.224 742.175 433.466Z" fill="#333333"/>
</g>
<path d="M723.09 472.438H724.08V419.886H723.09V472.438Z" fill="#4D4D4D"/>
<path d="M730.654 468.052H731.715V415.5H730.654V468.052Z" fill="#4D4D4D"/>
<path d="M738.217 463.667H739.277V411.115H738.217V463.667Z" fill="#4D4D4D"/>
<path d="M745.781 459.282H746.842V406.73H745.781V459.282Z" fill="#4D4D4D"/>
<path d="M753.418 454.967H754.408V402.416H753.418V454.967Z" fill="#4D4D4D"/>
<path d="M716.162 429.293L761.616 402.982L761.333 402.557L715.879 428.798L716.162 429.293Z" fill="#4D4D4D"/>
<path d="M716.162 434.032L761.616 407.791L761.333 407.367L715.879 433.607L716.162 434.032Z" fill="#4D4D4D"/>
<path d="M716.162 438.841L761.616 412.601L761.333 412.105L715.879 438.417L716.162 438.841Z" fill="#4D4D4D"/>
<path d="M716.162 443.651L761.616 417.339L761.333 416.915L715.879 443.156L716.162 443.651Z" fill="#4D4D4D"/>
<path d="M716.162 448.39L761.616 422.149L761.333 421.654L715.879 447.965L716.162 448.39Z" fill="#4D4D4D"/>
<path d="M716.162 453.199L761.616 426.888L761.333 426.464L715.879 452.704L716.162 453.199Z" fill="#4D4D4D"/>
<path d="M716.162 457.938L761.616 431.698L761.333 431.203L715.879 457.514L716.162 457.938Z" fill="#4D4D4D"/>
<path d="M716.162 462.748L761.616 436.436L761.333 436.012L715.879 462.253L716.162 462.748Z" fill="#4D4D4D"/>
<path d="M716.162 467.486L761.616 441.246L761.333 440.751L715.879 467.062L716.162 467.486Z" fill="#4D4D4D"/>
<path d="M716.162 472.296L761.616 445.985L761.333 445.561L715.879 471.801L716.162 472.296Z" fill="#4D4D4D"/>
<path fill-rule="evenodd" clip-rule="evenodd" d="M715.455 423.988L762.041 397.111V450.865L715.455 477.742V423.988ZM760.98 398.95L716.515 424.625V475.903L760.98 450.229V398.95Z" fill="#4D4D4D"/>
<path d="M807.281 366.06L709.586 422.502V413.449L807.281 357.007V366.06Z" fill="#CCCCCC"/>
<path d="M680.603 446.409L696.508 455.533C695.943 455.25 695.589 454.543 695.589 453.552L679.684 444.428C679.684 445.418 680.037 446.126 680.603 446.409Z" fill="#E6E6E6"/>
<path d="M700.892 429.363L684.986 420.168L682.795 421.441L698.7 430.565L700.892 429.363Z" fill="#E6E6E6"/>
<path d="M695.589 435.941L679.684 426.816V444.428L695.589 453.552V435.941Z" fill="#E6E6E6"/>
<path d="M692.48 437.709L682.795 432.192V438.204L692.48 443.721V437.709Z" fill="#4D4D4D"/>
<path d="M698.699 430.565L682.794 421.441C681.097 422.431 679.684 424.836 679.684 426.817L695.589 435.941C695.589 433.96 697.003 431.555 698.699 430.565Z" fill="#CCCCCC"/>
<path d="M695.588 453.552C695.588 455.533 697.002 456.311 698.698 455.32L700.89 454.118V429.363L698.698 430.565C697.002 431.555 695.588 433.96 695.588 435.941V453.552Z" fill="white"/>
<path d="M785.507 432.829L784.164 432.051L771.016 439.619L772.359 440.397L785.507 432.829Z" fill="#4D4D4D"/>
<path d="M772.359 440.397L771.016 439.619V446.551L772.359 447.329V440.397Z" fill="#4D4D4D"/>
<path d="M785.508 432.829L772.359 440.397V447.328L785.508 439.76V432.829Z" fill="white"/>
<path d="M801.628 423.493L800.285 422.786L787.137 430.354L788.48 431.061L801.628 423.493Z" fill="#4D4D4D"/>
<path d="M788.48 431.061L787.137 430.354V437.215L788.48 437.993V431.061Z" fill="#4D4D4D"/>
<path d="M801.627 423.493L788.479 431.061V437.992L801.627 430.424V423.493Z" fill="white"/>
<path d="M801.697 373.982L771.795 391.24C770.593 391.947 769.674 393.574 769.674 394.918V397.181C769.674 398.525 770.593 399.091 771.795 398.384L801.697 381.126C802.828 380.418 803.818 378.792 803.818 377.448V375.255C803.818 373.84 802.828 373.345 801.697 373.982Z" fill="#4D4D4D"/>
<path d="M802.476 374.477L772.644 391.735C771.442 392.442 770.523 394.069 770.523 395.413V397.676C770.523 399.02 771.442 399.515 772.644 398.879L802.476 381.621C803.678 380.914 804.597 379.287 804.597 377.943V375.68C804.597 374.336 803.678 373.77 802.476 374.477Z" fill="white"/>
<path d="M801.697 385.44L771.795 402.698C770.593 403.335 769.674 405.032 769.674 406.376V408.569C769.674 409.913 770.593 410.479 771.795 409.842L801.697 392.513C802.828 391.877 803.818 390.25 803.818 388.906V386.643C803.818 385.299 802.828 384.733 801.697 385.44Z" fill="#4D4D4D"/>
<path d="M802.476 385.865L772.644 403.193C771.442 403.83 770.523 405.457 770.523 406.801V409.064C770.523 410.408 771.442 410.974 772.644 410.266L802.476 393.008C803.678 392.372 804.597 390.674 804.597 389.33V387.138C804.597 385.794 803.678 385.228 802.476 385.865Z" fill="white"/>
<path d="M801.697 396.828L771.795 414.086C770.593 414.793 769.674 416.42 769.674 417.764V420.027C769.674 421.371 770.593 421.937 771.795 421.229L801.697 403.971C802.828 403.264 803.818 401.637 803.818 400.293V398.101C803.818 396.686 802.828 396.191 801.697 396.828Z" fill="#4D4D4D"/>
<path d="M802.476 397.323L772.644 414.581C771.442 415.288 770.523 416.915 770.523 418.259V420.522C770.523 421.866 771.442 422.361 772.644 421.725L802.476 404.467C803.678 403.759 804.597 402.132 804.597 400.789V398.525C804.597 397.181 803.678 396.616 802.476 397.323Z" fill="white"/>
<path d="M685.059 469.255L686.119 468.689C686.685 468.335 687.038 467.628 687.038 466.638C687.038 464.728 685.624 462.323 683.928 461.333C683.079 460.838 682.302 460.767 681.736 461.121L680.676 461.687L685.059 469.255Z" fill="#4D4D4D"/>
<path d="M679.826 463.738C679.826 461.757 681.169 460.909 682.866 461.899C684.563 462.889 685.976 465.294 685.976 467.274C685.976 469.255 684.563 470.033 682.866 469.042C681.169 468.052 679.826 465.647 679.826 463.738Z" fill="#CCCCCC"/>
<path d="M670.706 462.323L669.929 461.828C669.434 461.616 668.868 461.616 668.161 462.04C666.818 462.818 665.758 464.728 665.758 466.213C665.758 466.991 666.041 467.557 666.465 467.84L667.242 468.335L670.706 462.323Z" fill="#4D4D4D"/>
<path d="M669.009 468.123C667.666 468.901 666.535 468.265 666.535 466.708C666.535 465.152 667.666 463.313 669.009 462.535C670.352 461.757 671.413 462.323 671.413 463.879C671.413 465.435 670.352 467.345 669.009 468.123Z" fill="#CCCCCC"/>
<path d="M669.009 463.384C668.02 463.95 667.242 465.294 667.242 466.355C667.242 466.921 667.525 467.345 667.808 467.487C667.878 467.487 671.272 469.467 671.272 469.467C673.958 471.023 677.846 471.164 680.32 469.75L684.208 467.487C684.562 467.274 684.703 466.921 684.703 466.426C684.703 465.294 683.925 464.021 683.006 463.455C682.582 463.172 682.158 463.172 681.875 463.313C681.805 463.313 677.917 465.577 677.917 465.577C676.998 466.072 675.018 466.072 673.675 465.294L670.282 463.313C669.905 463.125 669.481 463.148 669.009 463.384Z" fill="#E6E6E6"/>
<path d="M685.836 459.282L686.896 458.716C687.462 458.362 687.745 457.726 687.745 456.735C687.745 454.755 686.401 452.35 684.705 451.36C683.857 450.865 683.079 450.794 682.513 451.148L681.453 451.714L685.836 459.282Z" fill="#4D4D4D"/>
<path d="M680.533 453.765C680.533 451.784 681.947 451.006 683.644 451.997C685.34 452.916 686.754 455.321 686.754 457.301C686.754 459.282 685.34 460.06 683.644 459.07C681.947 458.079 680.533 455.745 680.533 453.765Z" fill="#CCCCCC"/>
<path d="M671.484 452.35L670.636 451.926C670.211 451.643 669.575 451.714 668.939 452.067C667.596 452.845 666.465 454.755 666.465 456.311C666.465 457.089 666.748 457.584 667.242 457.867L668.02 458.362L671.484 452.35Z" fill="#4D4D4D"/>
<path d="M669.789 458.15C668.446 458.928 667.314 458.291 667.314 456.806C667.314 455.25 668.446 453.34 669.789 452.562C671.132 451.784 672.192 452.421 672.192 453.977C672.192 455.533 671.132 457.372 669.789 458.15Z" fill="#CCCCCC"/>
<path d="M669.716 453.482C668.797 453.977 668.02 455.321 668.02 456.382C668.02 457.018 668.232 457.372 668.585 457.514C668.585 457.584 672.049 459.494 672.049 459.494C674.735 461.121 678.623 461.191 681.027 459.777L684.985 457.514C685.268 457.301 685.48 456.948 685.48 456.453C685.48 455.321 684.703 454.048 683.784 453.482C683.289 453.199 682.935 453.199 682.582 453.34L678.623 455.604C677.775 456.099 675.725 456.099 674.452 455.321L670.989 453.411C670.659 453.175 670.235 453.199 669.716 453.482Z" fill="#E6E6E6"/>
<path d="M783.176 600.033C783.176 600.033 787.559 607.531 787.983 613.542C788.407 619.554 789.326 623.091 783.176 625.708C777.026 628.325 772.572 622.95 769.886 622.808C767.2 622.596 754.476 624.647 751.577 622.384C748.608 620.191 744.65 614.391 755.324 611.421C762.676 609.44 767.341 600.953 767.341 600.953L783.176 600.033Z" fill="black"/>
<path d="M758.574 549.603C766.067 570.256 764.159 603.64 764.159 603.64C762.603 606.257 782.75 617.998 789.113 608.804C789.395 608.379 788.971 601.165 789.113 598.619C790.032 586.17 786.709 555.544 787.557 545.43L771.723 533.83C771.864 531.638 771.793 529.092 771.793 526.475C771.652 518.553 771.44 509.782 777.024 506.105C768.471 505.609 761.19 505.963 758.574 507.802C752.565 512.117 751.151 528.95 758.574 549.603Z" fill="black"/>
<path d="M804.947 563.537C805.089 563.631 805.23 563.725 805.371 563.82C810.744 567.568 816.894 570.751 823.115 572.024C827.286 572.802 831.527 572.802 835.698 571.671C852.522 566.932 851.391 543.237 848.988 529.162C848.752 527.559 848.493 526.121 848.21 524.848L848.14 524.494C847.927 523.362 847.715 522.372 847.503 521.523C847.362 520.863 847.221 520.297 847.079 519.826C846.867 519.048 846.796 518.624 846.796 518.624C844.676 518.27 825.66 514.875 812.511 511.621L810.673 524.282L808.623 538.428L808.058 541.894L806.927 549.886L804.947 563.537Z" fill="#232434"/>
<path d="M772.996 510.348C774.057 508.58 775.4 507.165 777.026 506.104C781.691 506.387 786.64 506.883 791.517 507.519C793.991 507.873 796.466 508.297 798.799 508.651C802.828 509.358 806.433 510.136 809.544 510.914C810.486 511.15 811.476 511.409 812.513 511.692L804.949 563.537C793.567 555.544 785.509 545.147 785.509 545.147L785.367 545.006L779.5 540.267L770.522 532.982C770.098 530.648 769.815 528.101 769.744 525.555C769.603 519.967 770.522 514.38 772.996 510.348Z" fill="#11304D"/>
<path d="M781.973 541.115L787.841 545.925C787.275 528.243 796.748 514.946 801.272 509.57C798.939 509.146 796.465 508.792 793.991 508.438C782.822 519.684 781.62 534.043 781.973 541.115Z" fill="#FBB03B"/>
<g style="mix-blend-mode:multiply" opacity="0.5">
<path d="M772.996 510.348C774.033 510.678 775.187 511.032 776.46 511.409C785.65 514.026 806.645 532.274 806.645 532.274C805.726 526.192 806.998 518.694 809.331 510.843C801.555 508.863 788.195 506.741 777.025 506.104C775.4 507.165 774.056 508.58 772.996 510.348Z" fill="#3F396B"/>
</g>
<path d="M720.402 645.866L727.188 658.314C727.188 658.314 732.42 668.287 732.278 671.823C732.207 675.289 732.914 678.189 725.209 680.028C717.504 681.796 713.545 683.564 706.335 687.101C704.143 688.162 686.4 692.264 685.41 689.081C685.41 689.081 679.896 681.018 696.933 672.319C710.859 665.246 708.314 655.556 708.314 655.556L720.402 645.866Z" fill="black"/>
<path d="M704.284 662.346C712.485 671.258 731.925 660.719 731.925 660.719C731.925 660.719 730.794 651.241 730.087 640.773C729.592 631.296 729.45 620.969 731.006 615.947C735.035 602.721 727.825 582.775 727.825 582.775C730.369 583.624 733.975 584.261 738.075 584.685C748.042 585.887 761.403 586.312 772.077 586.453H780.065C785.933 586.453 789.821 586.383 789.821 586.383C803.252 589.07 820.076 588.292 832.306 576.056C833.578 574.783 834.709 573.368 835.558 571.883C835.605 571.789 835.652 571.718 835.699 571.671C838.385 567.286 839.658 561.981 840.223 556.959C841.001 549.674 840.365 542.813 839.87 539.56C839.729 538.287 839.516 537.579 839.516 537.579L834.215 535.174L833.366 534.75L810.675 524.282L791.871 515.653L781.974 511.126L786.427 534.821L787.912 542.672C782.398 542.601 783.034 543.167 777.167 544.086C775.894 544.299 774.551 544.369 773.279 544.44C771.959 544.581 770.616 544.676 769.25 544.723C756.03 546.208 742.316 549.533 733.126 552.079C731.854 552.456 730.676 552.81 729.592 553.14C724.926 554.484 722.099 555.403 722.099 555.403C722.099 555.403 702.871 559.505 701.174 570.751C699.477 582.068 703.648 638.652 704.355 645.866C705.133 653.08 704.284 662.346 704.284 662.346Z" fill="black"/>
<path d="M770.806 580.3C771.301 583.058 771.796 585.251 772.078 586.453H780.066C779.359 584.331 778.794 582.139 778.37 580.087C773.916 562.334 776.108 548.684 777.168 544.086C775.896 544.228 774.623 544.369 773.28 544.44C771.96 544.581 770.617 544.676 769.251 544.723C767.13 556.322 769.18 571.458 770.806 580.3Z" fill="#FBB03B"/>
<path d="M772.5 567.285C810.885 572.449 813.713 552.008 813.571 543.379H816.611C817.106 551.159 815.409 570.963 783.245 570.963C779.805 570.963 776.105 570.704 772.146 570.185L772.5 567.285Z" fill="#FBB03B"/>
<path d="M790.81 342.083L792.153 48.4146C792.224 47.6366 792.86 47 793.638 47C794.416 47 795.052 47.6366 795.052 48.4853L793.709 342.083C793.284 365.212 792.86 399.445 793.214 413.308C793.85 434.951 794.486 523.433 794.486 524.353C794.486 525.131 793.85 525.767 793.072 525.767C792.295 525.767 791.588 525.131 791.588 524.353C791.588 523.433 790.952 434.951 790.386 413.378C789.962 399.445 790.457 365.282 790.81 342.083Z" fill="#754C24"/>
<path d="M796.963 392.937C802.547 389.684 808.909 387.491 815.059 386.289C814.918 386.195 814.753 386.077 814.565 385.935C804.173 379.994 790.742 373.699 777.169 381.55C762.253 390.179 774.412 397.181 784.733 403.193C784.969 403.287 785.204 403.405 785.44 403.547C787.419 399.94 791.307 396.191 796.963 392.937Z" fill="#11304D"/>
<path d="M779.219 476.257C779.219 476.257 779.36 477.883 779.36 477.954C779.36 480.147 779.431 480.5 779.501 482.764C779.926 493.373 780.067 503.558 780.067 503.77C780.279 505.821 780.986 508.297 781.976 511.126C784.379 517.987 788.126 526.828 787.984 535.528C787.984 536.023 787.914 536.518 787.914 537.013C787.914 537.508 790.247 537.933 794.064 538.286C794.488 538.286 794.912 538.31 795.336 538.357C798.871 538.569 803.536 538.64 808.626 538.428C816.826 538.145 826.016 537.084 833.368 534.75C834.311 534.467 835.206 534.137 836.054 533.76C840.791 531.921 844.467 529.445 846.163 526.05C846.799 524.777 847.153 523.433 847.153 521.948C847.2 521.382 847.176 520.769 847.082 520.109V519.826L847.011 515.299V510.773C847.506 486.512 851.889 482.622 854.081 465.576C854.646 460.979 853.515 457.018 853.515 453.057C853.656 431.98 841.003 424.483 841.003 424.483C841.003 424.483 840.154 423.492 835.984 423.28C833.368 423.139 829.975 423.351 825.875 424.341C821.775 425.402 817.604 428.726 812.161 431.839C805.587 435.658 797.245 440.043 790.741 446.55C788.903 448.389 787.207 450.252 785.652 452.138C783.672 454.543 783.036 457.938 781.693 460.272C779.926 463.242 779.219 468.971 779.219 476.257Z" fill="black"/>
<path d="M847.576 479.652C840.153 487.786 829.055 497.263 815.058 503.77C815.058 470.174 809.403 447.47 790.74 446.55C797.173 440.043 804.878 434.243 811.453 430.424C816.896 427.241 821.774 425.402 825.874 424.341C844.607 428.09 849.202 455.887 847.576 479.652Z" fill="white"/>
<path d="M801.769 431.343L792.579 425.968C788.408 423.775 786.782 415.854 786.076 409.983L784.732 397.747L786.782 389.967L815.342 388.411L822.623 407.508L819.23 426.463L801.769 431.343Z" fill="#F79974"/>
<path d="M798.375 440.397L798.446 424.553L816.401 417.763L824.813 427.1C819.794 435.375 810.11 438.912 798.375 440.397Z" fill="#F79974"/>
<path d="M787.348 400.859L792.297 405.598C793.499 406.588 794.276 407.932 794.559 409.417L795.549 415.5L799.578 418.542L799.79 424.695C799.79 424.695 806.718 432.404 817.816 427.241C825.522 423.634 824.178 422.29 825.522 408.144C826.37 399.162 825.734 390.533 816.897 384.379C808.838 378.792 796.538 380.206 790.742 386.572C787.773 389.967 784.379 397.111 787.348 400.859Z" fill="black"/>
<path d="M800.497 414.015C801.345 415.217 801.557 416.702 801.628 418.117C801.698 419.461 801.628 420.876 800.921 421.936C800.143 423.068 798.588 423.634 797.457 422.927C795.902 421.936 794.346 416.49 794.629 414.651C795.053 411.469 799.012 411.751 800.497 414.015Z" fill="#F79974"/>
<path d="M808.06 507.236C802.263 510.348 797.244 511.975 792.649 512.045C786.429 512.187 783.813 508.438 780.844 500.941C780.773 500.375 779.006 485.663 779.006 485.098C778.653 472.649 775.825 467.344 780.632 459.211C782.046 456.877 783.672 454.542 785.651 452.208H786.429C806.222 450.865 807.07 478.378 808.06 507.236Z" fill="white"/>
<path d="M854.998 452.704C854.998 456.665 854.645 460.979 854.009 465.576C852.878 448.389 849.626 429.08 835.982 423.28C840.153 423.492 842.345 424.483 842.345 424.483C842.345 424.483 855.14 431.626 854.998 452.704Z" fill="#F2F2F2"/>
<path d="M803.678 412.812C796.68 412.459 788.621 406.517 784.733 403.193C784.733 403.193 780.986 384.591 795.761 379.711C825.804 369.667 826.158 401.991 826.158 401.991C824.32 410.195 817.392 412.812 803.678 412.812Z" fill="#232434"/>
<path d="M786.428 534.82L787.912 542.671C794.769 546.774 801.131 548.966 806.928 549.886C821.632 552.149 832.73 545.854 839.87 539.559C842.415 537.367 844.394 535.245 845.879 533.406C847.929 530.93 848.989 529.162 848.989 529.162L848.212 524.848L848.141 524.494L847.576 521.382C847.363 521.665 847.293 521.806 847.151 521.948C846.939 522.372 846.586 522.726 846.303 523.15C842.981 527.535 839.587 531.001 836.053 533.759C835.487 534.255 834.851 534.75 834.215 535.174C826.085 540.903 817.32 542.884 808.059 541.893C803.535 541.398 798.869 540.125 794.062 538.286C792.083 537.508 790.033 536.589 787.983 535.528C787.465 535.292 786.946 535.056 786.428 534.82Z" fill="#FBB03B"/>
<g style="mix-blend-mode:multiply" opacity="0.5">
<path d="M729.594 553.139C758.931 548.401 792.297 547.905 798.447 547.764C797.222 544.699 796.185 541.563 795.336 538.357C793.286 530.86 792.226 523.079 791.873 515.653C791.802 514.45 791.731 513.248 791.731 512.046C791.307 497.9 799.012 482.834 800.426 477.954L778.865 482.976L778.512 483.047C778.936 493.585 780.067 503.558 780.067 503.77C780.279 505.821 780.986 508.297 781.976 511.126L787.914 542.671C782.4 542.601 783.036 543.167 777.169 544.086C774.624 544.51 771.938 544.44 769.251 544.723C756.032 546.208 742.318 549.532 733.128 552.079C731.856 552.456 730.678 552.809 729.594 553.139Z" fill="#232434"/>
</g>
<path d="M724.717 499.385L716.446 497.758C711.427 497.192 706.974 495.99 703.863 493.09C701.177 489.2 698.844 485.381 697.996 481.703C701.177 482.622 704.358 482.976 707.327 482.622L710.084 479.015L707.681 473.922C706.691 471.942 707.751 470.457 710.155 472.579L714.255 476.469L717.507 484.249L733.907 493.515L724.717 499.385Z" fill="#F79974"/>
<path d="M766.213 478.662C770.949 473.074 776.18 466.921 780.634 459.282C789.541 445.419 810.89 464.587 800.569 484.037C796.257 490.332 790.743 495.566 784.946 500.234C774.413 498.183 767.061 488.776 766.213 478.662Z" fill="white"/>
<path d="M717.505 484.249C727.543 487.149 757.446 489.907 757.446 489.907C759.849 486.229 762.889 482.622 766.211 478.661C767.059 488.776 774.411 498.183 784.944 500.234C777.946 505.963 772.008 507.307 765.504 512.046C757.304 514.663 719.131 498.324 719.131 498.324C715.031 498.253 714.96 488.351 717.505 484.249Z" fill="#F79974"/>
<g style="mix-blend-mode:multiply" opacity="0.5">
<path d="M719.695 575.985C725.492 587.585 724.926 602.438 725.704 615.381C726.199 623.94 727.118 632.852 730.087 640.773C729.592 631.295 729.451 620.969 731.006 615.947C735.035 602.721 727.825 582.775 727.825 582.775C730.37 583.624 733.975 584.26 738.075 584.685C748.042 585.887 761.403 586.312 772.077 586.453H780.066C785.933 586.453 789.821 586.382 789.821 586.382C803.252 589.07 820.077 588.292 832.306 576.056C833.579 574.783 834.71 573.368 835.558 571.883C835.605 571.789 835.652 571.718 835.699 571.671C852.524 566.932 851.393 543.237 848.989 529.162C848.754 527.559 848.494 526.121 848.212 524.848L848.141 524.494L847.575 521.382C847.363 520.887 847.222 520.321 847.081 519.826L847.01 515.299C846.869 516.36 846.727 517.421 846.586 518.553C846.444 520.038 846.374 521.594 846.303 523.08C846.232 524.14 846.232 525.06 846.162 526.05C846.02 528.455 846.02 530.93 845.879 533.406C845.525 540.62 844.748 547.764 841.708 554.2C841.284 555.12 840.789 556.039 840.224 556.959C836.265 563.537 830.044 568.559 823.116 572.024C822.056 572.59 820.996 573.014 819.935 573.51C810.745 577.329 800.778 578.673 790.881 579.451C786.687 579.781 782.516 579.993 778.369 580.087C775.824 580.229 773.279 580.229 770.805 580.3C753.698 580.441 736.52 578.956 719.695 575.985Z" fill="#232434"/>
</g>
</svg>
